<svg width="85" height="85" viewBox="0 0 85 85" fill="none" xmlns="http://www.w3.org/2000/svg">
<mask id="mask0_5_261" style="mask-type:alpha" maskUnits="userSpaceOnUse" x="0" y="0" width="85" height="85">
<path d="M42.5 0C65.9909 0 85 19.0091 85 42.5C85 65.9909 65.9909 85 42.5 85C19.0091 85 0 65.9909 0 42.5C0 19.0091 19.0091 0 42.5 0Z" fill="white"/>
</mask>
<g mask="url(#mask0_5_261)">
<g filter="url(#filter0_d_5_261)">
<path d="M42.5 0.996094C65.4403 0.996094 84.0039 19.5597 84.0039 42.5C84.0039 65.4403 65.4403 84.0039 42.5 84.0039C19.5597 84.0039 0.996094 65.4403 0.996094 42.5C0.996094 19.5597 19.5597 0.996094 42.5 0.996094Z" fill="black"/>
</g>
<path d="M42.5 0.996094C65.4403 0.996094 84.0039 19.5597 84.0039 42.5C84.0039 65.4403 65.4403 84.0039 42.5 84.0039C19.5597 84.0039 0.996094 65.4403 0.996094 42.5C0.996094 19.5597 19.5597 0.996094 42.5 0.996094Z" fill="#373737"/>
<path d="M42.5 2.45239C64.6354 2.45239 82.5476 20.3646 82.5476 42.5C82.5476 64.6354 64.6354 82.5476 42.5 82.5476C20.3646 82.5476 2.45239 64.6354 2.45239 42.5C2.45239 20.3646 20.3646 2.45239 42.5 2.45239Z" fill="#5C5C5E"/>
<path d="M63.7616 60.1209C62.3054 64.6354 60.1209 67.9848 57.0628 70.4605C54.0046 72.9362 49.927 74.2468 44.83 74.6837L43.8106 67.9848C47.1601 67.5479 49.6357 66.8198 51.2376 65.6548C51.8202 65.2179 52.9852 63.9072 52.9852 63.9072L40.8981 25.1703H50.9464L57.9365 54.1502L65.3635 25.1703H75.1206L63.7616 60.1209ZM28.6653 23.8596C30.9954 23.8596 33.1798 24.1509 34.9273 24.879C36.8205 25.6072 38.568 26.6265 40.3156 28.0828L36.238 33.6167C35.073 32.7429 33.9079 32.1604 32.8885 31.7235C31.8692 31.2866 30.5585 31.141 29.3935 31.141C24.4421 31.141 21.9665 34.9273 21.9665 42.6456C21.9665 46.5775 22.549 49.3445 23.8596 50.9464C25.1703 52.6939 26.9178 53.4221 29.3935 53.4221C30.5585 53.4221 31.7235 53.2764 32.7429 52.8395C33.7623 52.4027 34.9273 51.8201 36.3836 50.9464L40.4612 56.7715C37.1118 59.5384 33.3254 60.8491 28.9566 60.8491C25.4615 60.8491 22.549 60.1209 19.9277 58.6646C17.452 57.2084 15.4132 55.024 14.1026 52.257C12.7919 49.4901 12.0638 46.2863 12.0638 42.5C12.0638 38.8593 12.7919 35.5098 14.1026 32.7429C15.4132 29.8304 17.452 27.6459 19.9277 26.044C22.4034 24.7334 25.3159 23.8596 28.6653 23.8596Z" fill="#373737"/>
</g>
<defs>
<filter id="filter0_d_5_261" x="-3.00391" y="-3.00391" width="91.0078" height="91.0078" filterUnits="userSpaceOnUse" color-interpolation-filters="sRGB">
<feFlood flood-opacity="0" result="BackgroundImageFix"/>
<feColorMatrix in="SourceAlpha" type="matrix" values="0 0 0 0 0 0 0 0 0 0 0 0 0 0 0 0 0 0 127 0" result="hardAlpha"/>
<feOffset/>
<feGaussianBlur stdDeviation="2"/>
<feColorMatrix type="matrix" values="0 0 0 0 0 0 0 0 0 0 0 0 0 0 0 0 0 0 0.3 0"/>
<feBlend mode="normal" in2="BackgroundImageFix" result="effect1_dropShadow_5_261"/>
<feBlend mode="normal" in="SourceGraphic" in2="effect1_dropShadow_5_261" result="shape"/>
</filter>
</defs>
</svg>
