<svg width="204" height="34" viewBox="0 0 204 34" fill="none" xmlns="http://www.w3.org/2000/svg">
<g clip-path="url(#clip0_4_229)">
<path d="M17.1344 33.9857V27.3762C24.2316 27.3762 29.7062 20.4672 26.9699 13.1561C26.472 11.7991 25.6782 10.5667 24.6446 9.54612C23.6109 8.52555 22.3628 7.74173 20.9884 7.25012C19.3932 6.6579 17.6768 6.4551 15.9851 6.65899C14.2935 6.86288 12.6769 7.46743 11.2729 8.42115C9.86885 9.37487 8.7191 10.6495 7.92152 12.1365C7.12394 13.6235 6.70215 15.2788 6.6921 16.9614H0C0 5.94551 10.8495 -2.76669 22.7108 0.839604C25.2598 1.63014 27.5775 3.01725 29.4666 4.88279C31.3556 6.74833 32.7601 9.03702 33.5602 11.554C37.2107 23.2714 28.389 33.9857 17.1344 33.9857Z" fill="#5C5C5E"/>
<path d="M17.2362 27.3766H10.5441V20.8676H17.2362V27.3766ZM10.5441 32.4845H5.47461V27.3766H10.5441V32.4845ZM5.47461 27.3766H1.22156V23.1713H5.47461V27.3766ZM61.1389 9.85172C59.2129 8.54911 56.6782 7.84152 53.8381 7.84152H47.655V27.3686H53.8401C56.6796 27.3686 59.1132 26.6677 61.141 25.2659C62.2485 24.4704 63.123 23.3995 63.6757 22.1622C64.2865 20.8596 64.5878 19.2574 64.5878 17.5548C64.5878 15.8522 64.2844 14.25 63.6757 13.0479C63.0649 11.5544 62.2546 10.5533 61.1389 9.85172ZM51.3054 11.1543H53.2314C55.361 11.1543 57.1852 11.5564 58.6042 12.4569C60.125 13.3575 60.8437 15.0702 60.8437 17.5648C60.8437 20.0595 60.0294 21.8707 58.6042 22.8718C57.287 23.6759 55.5625 24.1744 53.3311 24.1744H51.3054V11.1543ZM68.9467 7.55004C68.6649 7.54261 68.3846 7.59229 68.123 7.69601C67.8614 7.79973 67.6242 7.9553 67.4259 8.1531C67.1948 8.32939 67.0098 8.55765 66.8862 8.81885C66.7626 9.08005 66.704 9.36663 66.7153 9.65472C66.7153 10.2124 66.9397 10.7472 67.3391 11.1415C67.7384 11.5359 68.2801 11.7574 68.8449 11.7574C69.4097 11.7574 69.9514 11.5359 70.3508 11.1415C70.7501 10.7472 70.9745 10.2124 70.9745 9.65472C70.9819 9.37651 70.9315 9.09976 70.8265 8.8415C70.7215 8.58325 70.564 8.34897 70.3637 8.1531C70.0604 7.75106 69.5493 7.55004 68.9386 7.55004H68.9467ZM67.1062 13.5585H70.6549V27.2781H67.1205V13.5585H67.1062ZM83.3428 14.7646C82.3248 13.8641 81.1032 13.263 79.7941 13.263C78.9005 13.2436 78.013 13.4129 77.1911 13.7596C76.3691 14.1062 75.6316 14.6223 75.028 15.2732C73.7616 16.5977 73.0703 18.3589 73.102 20.1801C73.102 22.0838 73.7128 23.7844 74.9344 25.087C76.1559 26.3896 77.7725 26.9907 79.7005 26.9907C80.9412 27.0099 82.1533 26.6225 83.1473 25.8891V26.1886C83.1473 27.2902 82.844 28.1988 82.2352 28.8019C81.6265 29.4049 80.8101 29.7024 79.7005 29.7024C78.0717 29.7024 77.064 29.0994 75.8485 27.3987L73.4054 29.7024L73.5072 29.8029C74.0141 30.5045 74.8244 31.2101 75.8383 31.9056C76.8522 32.6011 78.1695 32.9107 79.6903 32.9107C81.8199 32.9107 83.4425 32.3076 84.658 31.007C85.8734 29.7064 86.584 28.1023 86.584 25.9996V13.5585H83.1412V14.7646H83.3448H83.3428ZM82.4327 22.8758C81.8219 23.5774 81.0076 23.8809 79.9896 23.8809C78.9716 23.8809 78.1573 23.5814 77.5465 22.8758C76.9357 22.1702 76.6344 21.2676 76.6344 20.1721C76.6344 19.0765 76.9581 18.1639 77.5689 17.4623C78.1796 16.7608 78.994 16.4572 80.012 16.4572C81.03 16.4572 81.8443 16.7568 82.4551 17.4623C83.0659 18.1679 83.3672 19.0705 83.3672 20.166C83.3672 21.2616 83.0638 22.1762 82.4551 22.8698L82.4327 22.8758ZM89.8557 13.5565H93.4043V27.2761H89.8333V13.5585L89.8557 13.5565ZM91.5577 7.55004C91.2762 7.54315 90.9961 7.59282 90.7346 7.69605C90.4731 7.79928 90.2355 7.95391 90.0363 8.15055C89.8372 8.34719 89.6806 8.58174 89.576 8.83997C89.4715 9.09819 89.4212 9.3747 89.4282 9.65271C89.4282 10.2104 89.6525 10.7452 90.0519 11.1395C90.4513 11.5338 90.9929 11.7554 91.5577 11.7554C92.1225 11.7554 92.6642 11.5338 93.0636 11.1395C93.4629 10.7452 93.6873 10.2104 93.6873 9.65271C93.6943 9.37453 93.6439 9.09785 93.5393 8.83949C93.4346 8.58112 93.2778 8.34648 93.0784 8.14981C92.879 7.95313 92.6412 7.79855 92.3795 7.69544C92.1177 7.59234 91.8374 7.54287 91.5557 7.55004H91.5577ZM100.982 9.85172H97.5393V13.5585H95.5034V16.6623H97.5393V22.3712C97.5393 24.1804 97.9465 25.475 98.655 26.1765C99.3635 26.8781 100.691 27.2781 102.407 27.2781C102.984 27.2946 103.561 27.261 104.132 27.1776H104.335V24.0719L103.114 24.1724C102.299 24.1724 101.689 24.0719 101.485 23.7703C101.182 23.4708 101.078 22.8698 101.078 21.9612V16.7628H104.323V13.657H101.088L100.982 9.85172ZM120.651 7.84152H124.2V27.3686H120.655V7.85358L120.651 7.84152ZM159.59 22.4738C159.072 23.0658 158.494 23.6046 157.866 24.0819C157.314 24.4125 156.679 24.5857 156.034 24.5825C155.558 24.5784 155.088 24.4775 154.654 24.2863C154.22 24.095 153.83 23.8174 153.509 23.4708C152.798 22.6667 152.491 21.7682 152.491 20.5661C152.491 19.364 152.794 18.4634 153.509 17.6613C153.817 17.2973 154.206 17.0084 154.646 16.8173C155.085 16.6262 155.564 16.5381 156.044 16.5598C157.159 16.5598 158.375 17.2613 159.389 18.4634L161.72 16.2522C160.199 14.3485 158.273 13.448 155.94 13.448C154.014 13.448 152.391 14.1495 150.972 15.5506C149.644 16.9256 148.914 18.7588 148.936 20.6585C148.936 22.6687 149.647 24.4639 150.972 25.7665C151.603 26.4435 152.372 26.981 153.228 27.3434C154.084 27.7058 155.008 27.885 155.94 27.8691C158.475 27.8691 160.502 26.7675 161.921 24.7654L159.59 22.4617V22.4738ZM173.887 15.5526C173.353 14.8587 172.654 14.3061 171.851 13.9445C170.93 13.5237 169.925 13.3173 168.911 13.3414C166.985 13.3414 165.362 14.043 164.145 15.4441C162.992 16.9005 162.383 18.7043 162.42 20.552C162.42 22.6547 163.031 24.3573 164.346 25.6599C165.661 26.9625 167.286 27.6701 169.416 27.6701C171.747 27.6701 173.675 26.7695 175.196 24.8659L175.298 24.7654L172.966 22.5542C172.763 22.8537 172.459 23.0547 172.152 23.3582C171.864 23.6577 171.518 23.8963 171.134 24.0598C170.607 24.3451 170.011 24.484 169.41 24.4618C168.527 24.4745 167.665 24.191 166.966 23.6578C166.356 23.1572 166.054 22.4516 165.949 21.5551H175.277V20.2525C175.3 19.3644 175.162 18.4795 174.87 17.6392C174.722 16.8628 174.371 16.1381 173.852 15.5366L173.887 15.5526ZM166.282 18.7649C166.438 18.1589 166.752 17.6041 167.195 17.1568C167.434 16.921 167.721 16.7368 168.036 16.6161C168.351 16.4953 168.689 16.4405 169.027 16.4552C169.841 16.4552 170.548 16.6562 170.953 17.1568C171.36 17.5588 171.564 18.1619 171.663 18.7649H166.282ZM187.373 14.6581C186.355 13.7575 184.838 13.3555 183.014 13.3555C181.898 13.3867 180.798 13.6254 179.772 14.0591C178.86 14.5596 177.94 15.2652 177.441 16.2703L179.681 18.373C180.593 16.8713 181.607 16.3628 183.026 16.3628C183.689 16.3454 184.338 16.5588 184.858 16.9658C185.089 17.1421 185.274 17.3704 185.398 17.6316C185.521 17.8928 185.58 18.1793 185.569 18.4674V19.169C184.752 18.897 183.896 18.7611 183.034 18.7669C181.31 18.7669 179.891 19.169 178.775 19.9731C177.659 20.7771 177.146 21.9833 177.146 23.3783C177.146 24.681 177.553 25.682 178.463 26.4821C179.373 27.2821 180.499 27.5837 181.808 27.5837C183.118 27.5837 184.343 27.0831 185.561 26.1765V27.2781H189.007V18.4654C189.007 16.8573 188.501 15.5607 187.379 14.6601L187.373 14.6581ZM181.194 22.0697C181.601 21.7702 182.106 21.6677 182.822 21.6677C183.722 21.6976 184.612 21.8665 185.459 22.1682V23.4708C184.62 24.1999 183.535 24.5928 182.417 24.5724C181.806 24.5724 181.301 24.4719 180.992 24.1704C180.683 23.8688 180.485 23.5673 180.485 23.1653C180.521 22.9434 180.602 22.7312 180.725 22.5417C180.847 22.3523 181.007 22.1895 181.196 22.0637L181.194 22.0697ZM202.479 14.8591C201.461 13.7575 200.148 13.251 198.424 13.251C197.004 13.251 195.889 13.653 195.079 14.4571V13.653H191.63V27.3726H195.178V19.766C195.178 18.7609 195.382 17.8624 195.889 17.2633C196.137 16.9709 196.449 16.7379 196.802 16.5819C197.155 16.4259 197.539 16.3509 197.925 16.3628C198.273 16.346 198.62 16.41 198.938 16.5497C199.256 16.6893 199.537 16.9007 199.757 17.1668C200.233 17.8069 200.483 18.584 200.468 19.378V27.3887H204V19.366C203.898 17.463 203.391 15.9607 202.479 14.8591ZM116.296 14.6581C115.278 13.7575 113.762 13.3555 111.937 13.3555C110.821 13.3856 109.719 13.6236 108.692 14.0571C107.78 14.5576 106.86 15.2632 106.361 16.2683L108.6 18.3709C109.513 16.8693 110.526 16.3607 111.946 16.3607C112.609 16.3434 113.258 16.5568 113.778 16.9638C114.009 17.1401 114.194 17.3683 114.318 17.6295C114.441 17.8907 114.5 18.1773 114.488 18.4654V19.167C113.672 18.895 112.815 18.7591 111.954 18.7649C110.23 18.7649 108.81 19.167 107.694 19.9711C106.579 20.7751 106.066 21.9813 106.066 23.3763C106.066 24.6789 106.473 25.68 107.383 26.4801C108.293 27.2801 109.419 27.5817 110.728 27.5817C112.037 27.5817 113.263 27.0811 114.48 26.1745V27.2761H117.927V18.4654C117.927 16.8573 117.316 15.5607 116.298 14.6601L116.296 14.6581ZM110.011 22.0697C110.419 21.7702 110.923 21.6677 111.64 21.6677C112.54 21.6976 113.43 21.8665 114.277 22.1682V23.4708C113.438 24.1999 112.353 24.5928 111.235 24.5724C110.624 24.5724 110.119 24.4719 109.81 24.1704C109.5 23.8688 109.303 23.5673 109.303 23.1653C109.454 22.7508 109.697 22.3745 110.013 22.0637L110.011 22.0697ZM136.888 27.6721C134.881 27.6729 132.92 27.0862 131.251 25.9863C129.583 24.8863 128.282 23.3225 127.514 21.4926C126.746 19.6627 126.544 17.6489 126.935 15.706C127.326 13.763 128.292 11.9782 129.71 10.5772C131.128 9.17621 132.936 8.22199 134.903 7.83524C136.871 7.44849 138.911 7.64658 140.764 8.40446C142.618 9.16234 144.202 10.446 145.317 12.093C146.432 13.74 147.027 15.6764 147.027 17.6573C147.017 20.3098 145.946 22.8509 144.047 24.7269C142.147 26.6029 139.574 27.6615 136.888 27.6721ZM136.888 11.0498C135.584 11.0478 134.308 11.4278 133.223 12.1416C132.137 12.8554 131.291 13.8711 130.79 15.06C130.29 16.249 130.157 17.5578 130.41 18.821C130.663 20.0842 131.29 21.2449 132.211 22.1564C133.132 23.0679 134.306 23.6891 135.585 23.9415C136.864 24.194 138.19 24.0662 139.395 23.5745C140.6 23.0827 141.631 22.2491 142.356 21.179C143.081 20.1089 143.469 18.8505 143.47 17.5628C143.472 16.7077 143.303 15.8606 142.972 15.0702C142.642 14.2798 142.156 13.5616 141.544 12.9568C140.932 12.3521 140.204 11.8727 139.404 11.5461C138.603 11.2195 137.746 11.0522 136.88 11.0538" fill="#5C5C5E"/>
</g>
<defs>
<clipPath id="clip0_4_229">
<rect width="204" height="34" fill="white"/>
</clipPath>
</defs>
</svg>
