<svg width="85" height="85" viewBox="0 0 85 85" fill="none" xmlns="http://www.w3.org/2000/svg">
<path d="M84.1624 35.1458C83.9322 34.9651 81.7806 33.3625 77.242 33.3625C76.0431 33.3678 74.8478 33.4688 73.6667 33.6653C72.7883 27.726 67.9664 24.9351 67.7432 24.8059L66.5249 24.1117L65.7227 25.2521C64.7186 26.7857 63.8315 28.3688 63.4011 30.1449C62.5883 33.5361 63.0824 36.72 64.8284 39.4418C62.7176 40.6017 59.121 40.7044 58.4375 40.7292H2.80146C1.33875 40.731 0.152291 41.8979 0.143437 43.3394C0.0779162 48.1791 0.768541 53.1728 2.45615 57.7168C4.38458 62.707 7.2551 66.3833 10.988 68.6322C15.1707 71.1592 21.9672 72.6042 29.6721 72.6042C33.1518 72.6148 36.6261 72.3049 40.0474 71.6763C44.8039 70.8139 49.3815 69.1741 53.589 66.8242C57.0563 64.8426 60.1765 62.3227 62.8309 59.3601C67.2669 54.4053 69.909 48.8892 71.8746 43.9858C72.1384 43.9858 72.4023 43.9858 72.6573 43.9858C77.5147 43.9858 80.5003 42.0679 82.1472 40.4618C83.2416 39.4365 84.0969 38.188 84.6512 36.805L85 35.7992L84.1624 35.1458Z" fill="#5C5C5E"/>
<path d="M14.1667 38.9583H8.85417C7.87667 38.9583 7.08333 38.165 7.08333 37.1875V31.875C7.08333 30.8975 7.87667 30.1041 8.85417 30.1041H14.1667C15.1442 30.1041 15.9375 30.8975 15.9375 31.875V37.1875C15.9375 38.165 15.1442 38.9583 14.1667 38.9583Z" fill="#5C5C5E"/>
<path d="M24.7917 38.9583H19.4792C18.5017 38.9583 17.7083 38.165 17.7083 37.1875V31.875C17.7083 30.8975 18.5017 30.1041 19.4792 30.1041H24.7917C25.7692 30.1041 26.5625 30.8975 26.5625 31.875V37.1875C26.5625 38.165 25.7692 38.9583 24.7917 38.9583Z" fill="#5C5C5E"/>
<path d="M35.4167 38.9583H30.1042C29.1267 38.9583 28.3333 38.165 28.3333 37.1875V31.875C28.3333 30.8975 29.1267 30.1041 30.1042 30.1041H35.4167C36.3942 30.1041 37.1875 30.8975 37.1875 31.875V37.1875C37.1875 38.165 36.3942 38.9583 35.4167 38.9583Z" fill="#5C5C5E"/>
<path d="M46.0417 38.9583H40.7292C39.7517 38.9583 38.9583 38.165 38.9583 37.1875V31.875C38.9583 30.8975 39.7517 30.1041 40.7292 30.1041H46.0417C47.0192 30.1041 47.8125 30.8975 47.8125 31.875V37.1875C47.8125 38.165 47.0192 38.9583 46.0417 38.9583Z" fill="#5C5C5E"/>
<path d="M24.7917 28.3333H19.4792C18.5017 28.3333 17.7083 27.54 17.7083 26.5625V21.25C17.7083 20.2725 18.5017 19.4791 19.4792 19.4791H24.7917C25.7692 19.4791 26.5625 20.2725 26.5625 21.25V26.5625C26.5625 27.54 25.7692 28.3333 24.7917 28.3333Z" fill="#5C5C5E"/>
<path d="M35.4167 28.3333H30.1042C29.1267 28.3333 28.3333 27.54 28.3333 26.5625V21.25C28.3333 20.2725 29.1267 19.4791 30.1042 19.4791H35.4167C36.3942 19.4791 37.1875 20.2725 37.1875 21.25V26.5625C37.1875 27.54 36.3942 28.3333 35.4167 28.3333Z" fill="#5C5C5E"/>
<path d="M46.0417 28.3333H40.7292C39.7517 28.3333 38.9583 27.54 38.9583 26.5625V21.25C38.9583 20.2725 39.7517 19.4791 40.7292 19.4791H46.0417C47.0192 19.4791 47.8125 20.2725 47.8125 21.25V26.5625C47.8125 27.54 47.0192 28.3333 46.0417 28.3333Z" fill="#5C5C5E"/>
<path d="M46.0417 17.7083H40.7292C39.7517 17.7083 38.9583 16.915 38.9583 15.9375V10.625C38.9583 9.64746 39.7517 8.85413 40.7292 8.85413H46.0417C47.0192 8.85413 47.8125 9.64746 47.8125 10.625V15.9375C47.8125 16.915 47.0192 17.7083 46.0417 17.7083Z" fill="#5C5C5E"/>
<path d="M56.6667 38.9583H51.3542C50.3767 38.9583 49.5833 38.165 49.5833 37.1875V31.875C49.5833 30.8975 50.3767 30.1041 51.3542 30.1041H56.6667C57.6442 30.1041 58.4375 30.8975 58.4375 31.875V37.1875C58.4375 38.165 57.6442 38.9583 56.6667 38.9583Z" fill="#5C5C5E"/>
</svg>
