<svg width="85" height="85" viewBox="0 0 85 85" fill="none" xmlns="http://www.w3.org/2000/svg">
<path d="M42.5 7.08337C22.9394 7.08337 7.08331 22.9394 7.08331 42.5C7.08331 58.2374 17.3559 71.5612 31.5562 76.1742H53.4437C67.644 71.5612 77.9166 58.2374 77.9166 42.5C77.9166 22.9394 62.0606 7.08337 42.5 7.08337Z" fill="url(#paint0_linear_4_181)"/>
<path opacity="0.05" d="M53.1427 74.3679L53.125 64.1006C53.125 62.4378 52.7354 60.8139 51.9881 59.3424C61.9774 57.336 66.8383 51.4303 66.8383 41.3206C66.8383 37.3274 65.6607 33.8016 63.3392 30.8373C63.5163 30.2759 63.6473 29.6951 63.7288 29.1001C64.0617 26.6758 63.688 25.0909 63.387 23.8159L63.3392 23.6105C63.0098 22.2009 62.6149 21.1951 62.599 21.1526L62.4024 20.6532L62.2058 20.1538L61.6711 20.0972L61.1345 20.0405C61.1345 20.0405 60.7821 20.0033 60.2473 20.0033C59.5053 20.0033 58.4056 20.0777 57.3662 20.4301L57.0191 20.5469C55.7087 20.9879 54.4708 21.4058 52.739 22.44C52.2325 22.7428 51.6782 23.0881 51.085 23.4741C48.404 22.8101 45.5193 22.4718 42.5 22.4718C39.4506 22.4718 36.5412 22.8118 33.8424 23.483C33.2421 23.0934 32.6843 22.7445 32.1743 22.44C30.4424 21.4058 29.2046 20.9897 27.8942 20.5469L27.5471 20.4301C26.5112 20.0777 25.4097 20.0033 24.6677 20.0033C24.1329 20.0033 23.7805 20.0405 23.7805 20.0405L23.2457 20.0972L22.7145 20.152L22.5162 20.6497L22.316 21.1508C22.2983 21.1968 21.9034 22.2027 21.5741 23.614L21.5263 23.8177C21.2252 25.0909 20.8516 26.6776 21.1845 29.1001C21.2695 29.7128 21.4058 30.3131 21.5918 30.8904C19.3163 33.8406 18.1634 37.3468 18.1634 41.3206C18.1634 51.4055 23.0297 57.3077 33.0331 59.33C32.6896 60.0171 32.4222 60.7431 32.2327 61.4975C31.8839 61.6161 31.5633 61.6958 31.28 61.7401C30.8585 61.8038 30.4176 61.8357 29.9714 61.8357C28.7566 61.8357 27.8021 61.5984 27.4302 61.377C26.8759 61.0477 25.886 60.0896 24.9263 58.6889C24.1064 57.4936 22.8278 55.93 21.3988 55.2765C20.1627 54.7116 18.8541 54.3876 17.8057 54.3876C17.5614 54.3876 17.3365 54.4053 17.1399 54.4371C16.2244 54.5824 15.4594 55.0853 15.0432 55.8184C14.6838 56.4506 14.6271 57.1873 14.8874 57.8389C15.2752 58.8093 16.3944 59.5832 17.2656 60.0613C17.6942 60.2968 18.6203 61.1575 19.1604 62.0252C19.5659 62.6768 19.7537 63.1408 20.014 63.7818C20.168 64.1626 20.338 64.5769 20.5682 65.0781C21.4005 66.8879 23.9983 68.4852 24.2923 68.6605C25.7196 69.5158 28.1191 69.7903 29.8828 69.87L30.1006 69.8753H30.1024C30.5274 69.8753 31.1118 69.8345 31.8803 69.7495V74.3767C31.8839 75.3135 30.9294 75.526 29.6668 75.5065L30.6354 75.8324C34.3453 77.1587 38.3297 77.9166 42.5 77.9166C46.6703 77.9166 50.6547 77.1587 54.3699 75.8341L55.6148 75.3702C54.3557 75.3277 53.1533 75.1223 53.1427 74.3679Z" fill="#5C5C5E"/>
<path opacity="0.07" d="M54.508 75.7864C53.7891 75.8696 52.2396 75.5934 52.2396 74.3786V64.1007C52.2396 62.1634 51.6588 60.2916 50.5821 58.6961C61.0566 57.0014 65.9512 51.4481 65.9512 41.3207C65.9512 37.3593 64.7364 33.8938 62.3404 31.0109C62.583 30.3645 62.753 29.6828 62.8504 28.9797C63.1603 26.7201 62.8221 25.2858 62.5246 24.0196L62.4768 23.8142C62.1616 22.4666 61.7897 21.5174 61.7738 21.4785L61.5772 20.9791L61.0406 20.9224C61.0406 20.9224 60.7254 20.8888 60.2455 20.8888C59.5709 20.8888 58.5739 20.9543 57.6495 21.2695L57.3024 21.3864C56.038 21.8132 54.8427 22.2151 53.1923 23.1997C52.6044 23.5504 51.9492 23.963 51.2426 24.4287C48.5279 23.7186 45.5901 23.3573 42.5 23.3573C39.3798 23.3573 36.4172 23.7204 33.683 24.4375C32.9694 23.9683 32.3107 23.5539 31.7192 23.1997C30.0688 22.2151 28.8735 21.8114 27.6091 21.3864L27.262 21.2695C26.3394 20.9561 25.3407 20.8888 24.666 20.8888C24.1861 20.8888 23.8709 20.9224 23.8709 20.9224L23.3361 20.9791L23.136 21.4803C23.12 21.5192 22.7482 22.4684 22.4329 23.816L22.3851 24.0214C22.0859 25.2875 21.7476 26.7201 22.0593 28.9797C22.1585 29.7005 22.3355 30.3982 22.587 31.0587C20.2371 33.9274 19.0471 37.3753 19.0471 41.3207C19.0471 51.4197 23.9452 56.9713 34.4286 58.6855C33.7291 59.7303 33.2403 60.9079 32.9889 62.1634C32.4045 62.3936 31.875 62.5459 31.4111 62.6167C30.9453 62.6875 30.4601 62.723 29.9696 62.723C28.7477 62.723 27.5737 62.4945 26.9769 62.1404C26.1977 61.6782 25.1051 60.5218 24.1932 59.1919C23.5734 58.2888 22.3391 56.6826 21.0269 56.0841C19.9024 55.5706 18.7284 55.2748 17.8022 55.2748C17.6074 55.2748 17.4303 55.289 17.2745 55.3138C16.6264 55.4165 16.0916 55.76 15.8083 56.2594C15.5816 56.6561 15.5444 57.1147 15.7038 57.5132C16.0208 58.3065 17.1948 59.0184 17.6853 59.2875C18.2786 59.6134 19.3127 60.605 19.906 61.5613C20.3504 62.2767 20.5612 62.7956 20.8286 63.4508C20.9791 63.8209 21.1438 64.2246 21.3669 64.7116C21.953 65.9848 23.7628 67.3183 24.7403 67.9044C26.0755 68.7048 28.5547 68.928 29.9147 68.9882L30.1113 68.9917C30.6408 68.9917 31.5279 68.912 32.7587 68.7527V74.3786C32.7587 75.7581 31.0038 75.813 30.5735 75.813C30.5186 75.813 31.4642 76.1388 31.4642 76.1388C34.9403 77.2792 38.6432 77.9167 42.5 77.9167C46.3569 77.9167 50.0597 77.2792 53.5341 76.1406C53.5341 76.1406 54.5629 75.7793 54.508 75.7864Z" fill="#5C5C5E"/>
<path d="M65.0675 41.3206C65.0675 37.23 63.6827 33.8371 61.3187 31.1773C61.5754 30.6017 61.8428 29.8297 61.9756 28.8592C62.2802 26.6457 61.9207 25.3176 61.6162 24.0178C61.3116 22.718 60.9521 21.8042 60.9521 21.8042C60.9521 21.8042 59.3194 21.6378 57.9364 22.1088C56.5534 22.5799 55.3634 22.9393 53.6474 23.9629C52.8452 24.441 52.0377 24.9652 51.3985 25.3902C48.6661 24.6323 45.661 24.2427 42.5 24.2427C39.3107 24.2427 36.2791 24.634 33.5272 25.3973C32.8862 24.9705 32.0734 24.4428 31.2659 23.9611C29.5499 22.9376 28.3599 22.5781 26.9769 22.1071C25.5939 21.636 23.9612 21.8025 23.9612 21.8025C23.9612 21.8025 23.6017 22.7162 23.2971 24.016C22.9925 25.3158 22.633 26.6439 22.9376 28.8575C23.074 29.8527 23.3502 30.6389 23.6141 31.218C21.2943 33.8618 19.9343 37.2335 19.9343 41.3188C19.9343 51.9137 25.6576 56.7499 36.0861 58.0266C34.8695 59.3123 34.0531 60.9591 33.7787 62.792C33.0934 63.093 32.3036 63.3763 31.5439 63.4897C29.5889 63.7854 27.5223 63.4897 26.5271 62.9C25.5319 62.3103 24.3507 60.9822 23.4653 59.6895C22.718 58.5986 21.6396 57.3325 20.6621 56.8862C19.3712 56.2965 18.1156 56.0752 17.4162 56.185C16.7149 56.2965 16.3838 56.8118 16.5307 57.182C16.6777 57.5503 17.379 58.1046 18.1174 58.5101C18.8559 58.9156 19.9998 60.0224 20.6639 61.092C21.4041 62.2855 21.5493 62.9743 22.1762 64.3379C22.6171 65.2977 24.1259 66.4965 25.2007 67.1411C26.1234 67.6954 27.9668 68.0106 29.9607 68.1009C30.6496 68.1328 32.277 67.9309 33.6494 67.7361V74.3767C33.6494 75.5083 32.6135 76.3689 31.5403 76.1706C34.9846 77.3287 38.6626 77.9166 42.5 77.9166C46.3356 77.9166 50.0137 77.3287 53.4615 76.1741C52.3901 76.3707 51.3542 75.5101 51.3542 74.3785V64.1006C51.3542 61.7472 50.421 59.6204 48.9228 58.0355C59.2751 56.7924 65.0675 52.0713 65.0675 41.3206ZM19.9024 57.954C19.6297 57.8141 19.4827 57.5556 19.5748 57.3732C19.6669 57.1908 19.9644 57.1572 20.2371 57.2971C20.5098 57.437 20.6568 57.6955 20.5647 57.8779C20.4726 58.0603 20.1751 58.0939 19.9024 57.954ZM22.0487 59.291C21.9052 59.4468 21.5971 59.3973 21.3598 59.1812C21.1225 58.9652 21.0464 58.6624 21.1898 58.5065C21.3332 58.3507 21.6414 58.4003 21.8787 58.6163C22.116 58.8324 22.1921 59.1352 22.0487 59.291ZM23.3839 61.5046C23.2032 61.6321 22.8969 61.5134 22.7003 61.2389C22.5038 60.9645 22.4914 60.6368 22.672 60.5093C22.8526 60.3818 23.159 60.5005 23.3555 60.775C23.5503 61.0494 23.5645 61.3771 23.3839 61.5046ZM25.3017 63.1709C25.1795 63.3692 24.8324 63.3781 24.5278 63.1922C24.2232 63.0062 24.0745 62.6946 24.1967 62.4962C24.3189 62.2979 24.666 62.289 24.9705 62.475C25.2751 62.6609 25.4239 62.9726 25.3017 63.1709ZM27.115 64.8019C26.7378 64.7558 26.458 64.5203 26.4899 64.2759C26.52 64.0315 26.8512 63.8722 27.2266 63.9182C27.6038 63.9642 27.8836 64.1998 27.8517 64.4441C27.8216 64.6867 27.4922 64.8479 27.115 64.8019ZM30.0387 65.2251C29.6367 65.2021 29.3232 64.9718 29.3392 64.7133C29.3551 64.4548 29.6934 64.2617 30.0953 64.2848C30.4973 64.3078 30.8107 64.538 30.7948 64.7965C30.7789 65.0568 30.4406 65.2481 30.0387 65.2251ZM32.7976 64.9488C32.3691 64.9488 32.022 64.7257 32.022 64.4512C32.022 64.1767 32.3691 63.9536 32.7976 63.9536C33.2262 63.9536 33.5732 64.1767 33.5732 64.4512C33.5732 64.7257 33.2244 64.9488 32.7976 64.9488Z" fill="#373737"/>
<defs>
<linearGradient id="paint0_linear_4_181" x1="7.08331" y1="41.6288" x2="77.9166" y2="41.6288" gradientUnits="userSpaceOnUse">
<stop stop-color="#5C5C5E"/>
<stop offset="1" stop-color="#343434"/>
</linearGradient>
</defs>
</svg>
