<svg width="33" height="32" viewBox="0 0 33 32" fill="none" xmlns="http://www.w3.org/2000/svg">
<path d="M16.4362 0C7.3599 0 0 7.33514 0 16.3838C0 23.6227 4.70946 29.764 11.2401 31.9304C12.0615 32.082 12.3631 31.575 12.3631 31.1422C12.3631 30.7516 12.3478 29.4608 12.3408 28.0918C7.76815 29.0829 6.80329 26.1588 6.80329 26.1588C6.05563 24.265 4.97836 23.7616 4.97836 23.7616C3.48717 22.7447 5.09077 22.7655 5.09077 22.7655C6.74128 22.8811 7.61037 24.4539 7.61037 24.4539C9.07629 26.9587 11.4554 26.2345 12.3933 25.8159C12.5408 24.7569 12.9668 24.0342 13.4368 23.6251C9.78618 23.2107 5.94838 21.8059 5.94838 15.5281C5.94838 13.7395 6.59046 12.2778 7.64195 11.1305C7.47128 10.7178 6.90873 9.05145 7.80115 6.79469C7.80115 6.79469 9.18135 6.35434 12.3223 8.47412C13.6333 8.11099 15.0394 7.92905 16.4362 7.92288C17.833 7.92905 19.2402 8.11099 20.5537 8.47412C23.6909 6.35434 25.0692 6.79469 25.0692 6.79469C25.9638 9.05145 25.401 10.7178 25.2303 11.1305C26.2841 12.2778 26.9218 13.7393 26.9218 15.5281C26.9218 21.8208 23.0768 23.2065 19.4169 23.612C20.0064 24.1205 20.5317 25.1176 20.5317 26.646C20.5317 28.8381 20.5126 30.6025 20.5126 31.1422C20.5126 31.5782 20.8084 32.0891 21.6417 31.9282C28.1687 29.7593 32.8723 23.6202 32.8723 16.3838C32.8723 7.33514 25.5134 0 16.4362 0Z" fill="#5C5C5E"/>
<path d="M6.15592 23.3391C6.11983 23.4204 5.99118 23.4448 5.87426 23.3891C5.75502 23.3356 5.68799 23.2246 5.72666 23.1429C5.76211 23.0591 5.89076 23.0357 6.00974 23.092C6.12924 23.1453 6.1973 23.2574 6.15592 23.3391ZM6.96442 24.0581C6.88604 24.1306 6.73277 24.0969 6.62875 23.9824C6.52124 23.8682 6.50113 23.7156 6.58067 23.6419C6.66149 23.5696 6.81012 23.6034 6.91788 23.7177C7.02539 23.8333 7.04627 23.985 6.96429 24.0583L6.96442 24.0581ZM7.5191 24.9782C7.4183 25.0479 7.25356 24.9825 7.15185 24.8368C7.05117 24.6912 7.05117 24.5165 7.15404 24.4464C7.25613 24.3764 7.4183 24.4394 7.52142 24.5839C7.62197 24.7321 7.62197 24.9068 7.51897 24.9783L7.5191 24.9782ZM8.45702 26.0438C8.36692 26.1427 8.17511 26.1162 8.0346 25.9811C7.891 25.849 7.85091 25.6615 7.94127 25.5624C8.03241 25.4632 8.22538 25.4911 8.36692 25.6251C8.50962 25.757 8.55319 25.9458 8.45715 26.0438H8.45702ZM9.66926 26.4035C9.62968 26.5318 9.44483 26.5901 9.25869 26.5356C9.07281 26.4795 8.95112 26.3291 8.98863 26.1995C9.0273 26.0704 9.21293 26.0096 9.40049 26.0679C9.58611 26.1238 9.70806 26.273 9.66939 26.4035H9.66926ZM11.0491 26.5561C11.0537 26.6912 10.8958 26.8033 10.7004 26.8057C10.5038 26.81 10.3449 26.7006 10.3428 26.5678C10.3428 26.4313 10.4971 26.3203 10.6935 26.3171C10.889 26.3132 11.0491 26.4218 11.0491 26.5561ZM12.4044 26.5043C12.4278 26.6361 12.292 26.7716 12.098 26.8075C11.9072 26.8422 11.7306 26.7609 11.7062 26.6302C11.6825 26.495 11.821 26.3597 12.0114 26.3247C12.2057 26.291 12.3796 26.3703 12.4044 26.5043Z" fill="#5C5C5E"/>
</svg>
