<svg width="85" height="85" viewBox="0 0 85 85" fill="none" xmlns="http://www.w3.org/2000/svg">
<path d="M43.3854 79.9726L12.3958 61.6604V25.1104L43.3854 6.79822L74.375 25.1104V61.6604L43.3854 79.9726ZM15.9375 59.6417L43.3854 75.8607L70.8333 59.6417V27.1292L43.3854 10.9101L15.9375 27.1292V59.6417Z" fill="#5C5C5E"/>
<path d="M43.3854 15.9375C46.8084 15.9375 49.5833 13.1626 49.5833 9.7396C49.5833 6.31659 46.8084 3.54169 43.3854 3.54169C39.9624 3.54169 37.1875 6.31659 37.1875 9.7396C37.1875 13.1626 39.9624 15.9375 43.3854 15.9375Z" fill="#5C5C5E"/>
<path d="M43.3854 83.2292C46.8084 83.2292 49.5833 80.4543 49.5833 77.0313C49.5833 73.6083 46.8084 70.8334 43.3854 70.8334C39.9624 70.8334 37.1875 73.6083 37.1875 77.0313C37.1875 80.4543 39.9624 83.2292 43.3854 83.2292Z" fill="#5C5C5E"/>
<path d="M15.0521 65.5208C18.4751 65.5208 21.25 62.7459 21.25 59.3229C21.25 55.8999 18.4751 53.125 15.0521 53.125C11.6291 53.125 8.85419 55.8999 8.85419 59.3229C8.85419 62.7459 11.6291 65.5208 15.0521 65.5208Z" fill="#5C5C5E"/>
<path d="M71.7187 65.5208C75.1418 65.5208 77.9167 62.7459 77.9167 59.3229C77.9167 55.8999 75.1418 53.125 71.7187 53.125C68.2957 53.125 65.5208 55.8999 65.5208 59.3229C65.5208 62.7459 68.2957 65.5208 71.7187 65.5208Z" fill="#5C5C5E"/>
<path d="M15.0521 33.6458C18.4751 33.6458 21.25 30.8709 21.25 27.4479C21.25 24.0249 18.4751 21.25 15.0521 21.25C11.6291 21.25 8.85419 24.0249 8.85419 27.4479C8.85419 30.8709 11.6291 33.6458 15.0521 33.6458Z" fill="#5C5C5E"/>
<path d="M71.7187 33.6458C75.1418 33.6458 77.9167 30.8709 77.9167 27.4479C77.9167 24.0249 75.1418 21.25 71.7187 21.25C68.2957 21.25 65.5208 24.0249 65.5208 27.4479C65.5208 30.8709 68.2957 33.6458 71.7187 33.6458Z" fill="#5C5C5E"/>
<path d="M75.65 61.9792H11.1208L43.3854 5.27356L75.65 61.9792ZM17.2125 58.4375H69.5583L43.3854 12.4348L17.2125 58.4375Z" fill="#5C5C5E"/>
</svg>
