<svg width="146" height="41" viewBox="0 0 146 41" fill="none" xmlns="http://www.w3.org/2000/svg">
<g clip-path="url(#clip0_5_290)">
<path d="M32.9948 0H3.70532C1.66424 0 0.0313721 1.64 0.0313721 3.69V37.31C0.0313721 39.36 1.66424 41 3.70532 41H32.9948C35.0359 41 36.6688 39.36 36.6688 37.31V3.69C36.6688 1.64 35.0359 0 32.9948 0ZM34.6277 37.31C34.6277 38.2325 33.9133 38.95 32.9948 38.95H3.70532C2.78683 38.95 2.07245 38.2325 2.07245 37.31V3.69C2.07245 2.7675 2.78683 2.05 3.70532 2.05H32.9948C33.9133 2.05 34.6277 2.7675 34.6277 3.69V37.31ZM9.21623 34.85L13.8087 30.75L9.21623 26.65V34.85ZM25.749 18.245C24.9326 17.425 23.4017 16.4 20.8504 16.4C18.0949 16.4 15.2374 17.1175 13.1963 17.835V6.15H9.21623V23.8825L12.0737 22.55C12.0737 22.55 16.7682 20.3975 20.8504 20.3975C22.8915 20.3975 23.4017 21.525 23.4017 22.55V34.85H27.4839V22.55C27.4839 22.2425 27.4839 19.9875 25.749 18.245ZM20.3401 12.8125H24.4223C26.2593 10.66 27.1777 8.5075 27.4839 6.15H23.4017C22.9935 8.5075 21.973 10.66 20.3401 12.8125ZM133.11 22.4475V13.325H137.192V22.345C137.192 24.395 137.906 25.42 139.539 25.42C141.172 25.42 141.784 24.4975 141.784 22.345V13.325H145.765V22.4475C145.765 26.445 143.825 28.8025 139.437 28.8025C135.049 28.8025 133.11 26.445 133.11 22.4475ZM115.965 13.4275H120.047V18.9625L124.231 13.4275H128.926L123.823 19.3725L129.334 28.5975H124.741L121.169 22.55L120.047 23.8825V28.5975H115.965V13.4275ZM96.5745 20.91C96.5745 15.375 100.35 13.0175 104.024 13.0175C107.698 13.0175 111.474 15.375 111.474 20.91C111.474 26.445 107.698 28.8025 104.024 28.8025C100.35 28.8025 96.5745 26.5475 96.5745 20.91ZM107.29 20.91C107.29 18.1425 106.065 16.4 103.922 16.4C101.779 16.4 100.555 18.1425 100.555 20.91C100.555 23.6775 101.779 25.5225 103.922 25.5225C106.065 25.5225 107.29 23.78 107.29 20.91ZM80.1438 13.4275H86.0629C89.941 13.4275 92.2882 14.76 92.2882 18.3475C92.2882 20.705 91.2677 22.14 89.3286 22.755L92.4923 28.5975H88.206L85.2465 23.37H84.1239V28.5975H80.1438V13.4275ZM85.9608 20.1925C87.5937 20.1925 88.4101 19.68 88.4101 18.45C88.4101 17.22 87.6958 16.7075 85.9608 16.7075H84.2259V20.1925H85.9608ZM64.5295 13.4275H75.3472V16.81H68.6117V19.27H73.4082V22.4475H68.6117V25.215H75.6534V28.495H64.5295V13.4275ZM46.0577 13.4275H50.1399V19.065H55.1405V13.4275H59.2227V28.5975H55.1405V22.4475H50.1399V28.5975H46.0577V13.4275Z" fill="#5C5C5E"/>
</g>
<defs>
<clipPath id="clip0_5_290">
<rect width="146" height="41" fill="white"/>
</clipPath>
</defs>
</svg>
