<svg width="85" height="85" viewBox="0 0 85 85" fill="none" xmlns="http://www.w3.org/2000/svg">
<path d="M45.7824 31.1633L33.767 0H84.8136L72.7568 31.2539C72.2342 31.364 71.7248 31.5029 71.23 31.6699L59.3196 10.315L47.3746 31.5436C46.8584 31.3871 46.3272 31.2585 45.7824 31.1633ZM6.52617 82.1765C22.5819 92.0885 40.3908 72.9089 64.6491 70.4928C78.5796 69.7674 88.0484 62.2719 82.6532 50.669C72.6224 56.0991 63.2476 48.9834 63.3132 41.843H55.6909C55.4405 48.2178 49.985 53.2332 41.5282 52.4877C34.9087 61.1911 27.2369 66.0811 18.5317 68.5665C12.6481 66.1801 7.11101 60.3671 9.62153 52.6028C8.50898 52.4937 7.44157 52.2533 6.43776 51.9004C-1.65472 65.1815 -2.65458 75.6777 6.52617 82.1765ZM18.4792 41.844C18.4792 36.7997 12.2234 33.6299 7.24583 36.1521C2.26822 38.6742 2.26822 45.0138 7.24583 47.536C12.2234 50.0581 18.4792 46.8883 18.4792 41.844ZM50.8562 41.7815C50.8562 36.7372 44.6004 33.5674 39.6228 36.0896C34.6452 38.6117 34.6452 44.9513 39.6228 47.4735C44.6004 49.9956 50.8562 46.8258 50.8562 41.7815ZM83.1116 41.7815C83.1116 36.7372 76.8558 33.5674 71.8782 36.0896C66.9006 38.6117 66.9006 44.9513 71.8782 47.4735C76.8558 49.9956 83.1116 46.8258 83.1116 41.7815Z" fill="#5C5C5E"/>
</svg>
