<svg width="35" height="35" viewBox="0 0 35 35" fill="none" xmlns="http://www.w3.org/2000/svg">
<g clip-path="url(#clip0_5_276)">
<path d="M17.5 0.000514984C7.83494 0.000514984 0 7.83545 0 17.5005C0 27.1655 7.83494 35.0004 17.5 35.0004C27.165 35.0004 35 27.1655 35 17.5005C34.9999 7.83545 27.1649 0.000514984 17.5 0.000514984ZM12.8309 25.9609H8.98865V13.5476H12.8309V25.9609ZM10.8915 11.9219C9.63663 11.9219 8.61936 10.8964 8.61936 9.63145C8.61936 8.36641 9.63678 7.34091 10.8915 7.34091C12.1462 7.34091 13.1635 8.36641 13.1635 9.63145C13.1635 10.8964 12.1463 11.9219 10.8915 11.9219ZM27.2299 25.9609H23.4063V19.4449C23.4063 17.6578 22.7274 16.6602 21.3143 16.6602C19.7763 16.6602 18.9729 17.6992 18.9729 19.4449V25.9609H15.2877V13.5476H18.9729V15.2194C18.9729 15.2194 20.0814 13.1689 22.7135 13.1689C25.3457 13.1689 27.23 14.7761 27.23 18.101L27.2299 25.9609Z" fill="#5C5C5E"/>
</g>
<defs>
<clipPath id="clip0_5_276">
<rect width="35" height="35" fill="white"/>
</clipPath>
</defs>
</svg>
