<svg width="237" height="33" viewBox="0 0 237 33" fill="none" xmlns="http://www.w3.org/2000/svg">
<g clip-path="url(#clip0_5_286)">
<path d="M0.0395126 4.54055L13.5686 2.68033V15.7393H0.0407582L0.0395126 4.54055ZM13.5686 17.4104V30.3217L0.041381 28.4643L0.0410696 17.4111H13.5689V17.4104H13.5686ZM15.0646 2.47505L33.0667 -0.000366211V15.7393H15.0646V2.47505ZM33.0667 17.4104V33.0003L15.0646 30.5267V17.4104H33.0667Z" fill="#5C5C5E"/>
<path d="M63.628 26.255H60.5006V14.1595C60.5006 13.168 60.5625 11.9572 60.6862 10.5222H60.6338C60.4386 11.3389 60.2664 11.9251 60.1169 12.2827L54.4457 26.255H52.2724L46.5875 12.3874C46.4287 11.9793 46.2605 11.3576 46.0843 10.5237H46.032C46.1033 11.2713 46.1381 12.4917 46.1381 14.1859V26.255H43.2225V7.56425H47.6615L52.6573 20.0121C53.0369 20.9677 53.2845 21.681 53.3988 22.1495H53.4648C53.7917 21.1674 54.0564 20.4369 54.2598 19.9591L59.3487 7.56425H63.6289L63.6276 26.255H63.628ZM69.4985 10.1054C68.9953 10.1054 68.5633 9.94529 68.2068 9.62352C67.8487 9.30206 67.6699 8.89307 67.6699 8.39811C67.6699 7.90315 67.8487 7.49011 68.2068 7.15931C68.5649 6.82975 68.9953 6.66404 69.4985 6.66404C70.0191 6.66404 70.462 6.82975 70.8238 7.15931C71.1857 7.49011 71.3675 7.90159 71.3675 8.39811C71.3675 8.86659 71.1857 9.26904 70.8238 9.60358C70.4604 9.93875 70.0191 10.1054 69.4985 10.1054ZM71.0215 26.255H67.9483V12.9076H71.0219V26.255H71.0215ZM84.7636 25.6423C83.6778 26.259 82.3914 26.5674 80.9073 26.5674C78.8931 26.5674 77.2676 25.9481 76.0307 24.7106C74.7945 23.473 74.1754 21.8676 74.1754 19.8943C74.1754 17.6958 74.8402 15.9303 76.1696 14.5958C77.4993 13.262 79.2765 12.5948 81.5033 12.5948C82.7399 12.5948 83.831 12.8079 84.7758 13.2343V16.0493C83.8298 15.3546 82.8233 15.0064 81.7552 15.0064C80.4567 15.0064 79.3923 15.4394 78.5621 16.3034C77.7319 17.1678 77.3159 18.2995 77.3159 19.6984C77.3159 21.0802 77.7061 22.1707 78.488 22.97C79.2696 23.7696 80.319 24.1692 81.6353 24.1692C82.7399 24.1692 83.7812 23.783 84.7621 23.0098L84.7636 25.6423ZM95.6947 15.7886C95.3232 15.5014 94.7892 15.3587 94.091 15.3587C93.1811 15.3587 92.421 15.7621 91.8116 16.5707C91.2019 17.3781 90.8967 18.478 90.8967 19.8678V26.255H87.8219V12.9076H90.8967V15.6577H90.949C91.2492 14.7192 91.7107 13.9872 92.3335 13.4617C92.9563 12.9365 93.6523 12.673 94.4205 12.673C94.9776 12.673 95.4014 12.7565 95.6935 12.9207L95.6947 15.7886ZM103.91 26.5674C101.817 26.5674 100.146 25.9441 98.8944 24.6972C97.6444 23.4506 97.0188 21.7972 97.0188 19.7383C97.0188 17.4958 97.67 15.7449 98.9738 14.485C100.278 13.225 102.032 12.5948 104.241 12.5948C106.362 12.5948 108.013 13.2078 109.197 14.4333C110.381 15.659 110.972 17.3569 110.972 19.5289C110.972 21.6586 110.334 23.3634 109.057 24.6442C107.782 25.927 106.066 26.5674 103.91 26.5674ZM104.056 15.0064C102.854 15.0064 101.904 15.4194 101.207 16.2439C100.509 17.0697 100.161 18.2079 100.161 19.6585C100.161 21.0574 100.514 22.1589 101.221 22.9622C101.927 23.7655 102.873 24.1677 104.057 24.1677C105.268 24.1677 106.198 23.7721 106.847 22.9821C107.495 22.1906 107.821 21.0655 107.821 19.6056C107.821 18.1378 107.497 17.0037 106.847 16.2041C106.197 15.406 105.267 15.0064 104.056 15.0064ZM113.266 25.8382V23.0363C114.415 23.8967 115.683 24.3265 117.068 24.3265C118.924 24.3265 119.851 23.788 119.851 22.7105C119.851 22.4062 119.772 22.1483 119.613 21.9349C119.454 21.7218 119.24 21.5328 118.97 21.3686C118.699 21.2044 118.382 21.0562 118.016 20.9254C117.648 20.7942 117.241 20.6472 116.79 20.4818C116.274 20.2836 115.772 20.0529 115.286 19.7909C114.839 19.5473 114.469 19.2723 114.173 18.9639C113.881 18.6629 113.654 18.3057 113.504 17.9142C113.354 17.5239 113.28 17.0669 113.28 16.5458C113.28 15.9026 113.434 15.336 113.744 14.845C114.053 14.3538 114.468 13.9411 114.988 13.6075C115.51 13.2726 116.101 13.0213 116.764 12.8518C117.436 12.6813 118.125 12.5959 118.818 12.5976C120.072 12.5976 121.194 12.7842 122.183 13.1574V15.8032C121.229 15.16 120.134 14.8382 118.897 14.8382C118.508 14.8382 118.157 14.8781 117.844 14.9547C117.53 15.0329 117.262 15.1416 117.042 15.2805C116.821 15.4194 116.649 15.5861 116.525 15.782C116.402 15.9745 116.338 16.1984 116.339 16.4268C116.339 16.7137 116.401 16.9573 116.525 17.1572C116.649 17.3569 116.832 17.5329 117.075 17.6852C117.317 17.8375 117.61 17.9765 117.95 18.102C118.29 18.2278 118.68 18.3655 119.123 18.5125C119.658 18.7253 120.182 18.9647 120.693 19.2299C121.158 19.4732 121.553 19.7485 121.88 20.0569C122.202 20.358 122.459 20.722 122.635 21.1263C122.812 21.53 122.9 22.0106 122.9 22.5663C122.9 23.2441 122.741 23.8341 122.423 24.3387C122.105 24.843 121.68 25.2598 121.151 25.5893C120.621 25.9201 120.009 26.1649 119.316 26.3251C118.621 26.4867 117.891 26.5661 117.123 26.5661C115.637 26.5674 114.352 26.325 113.266 25.8382ZM131.844 26.5674C129.75 26.5674 128.078 25.9441 126.828 24.6972C125.578 23.4506 124.953 21.7972 124.953 19.7383C124.953 17.4958 125.605 15.7449 126.909 14.485C128.211 13.225 129.967 12.5948 132.175 12.5948C134.296 12.5948 135.946 13.2078 137.131 14.4333C138.315 15.659 138.907 17.3569 138.907 19.5289C138.907 21.6586 138.269 23.3634 136.992 24.6442C135.715 25.927 133.998 26.5674 131.844 26.5674ZM131.989 15.0064C130.788 15.0064 129.838 15.4194 129.139 16.2439C128.441 17.0697 128.093 18.2079 128.093 19.6585C128.093 21.0574 128.447 22.1589 129.153 22.9622C129.859 23.7655 130.805 24.1677 131.989 24.1677C133.199 24.1677 134.129 23.7721 134.779 22.9821C135.429 22.1906 135.753 21.0655 135.753 19.6056C135.753 18.1378 135.429 17.0037 134.779 16.2041C134.129 15.406 133.199 15.0064 131.989 15.0064ZM149.719 8.95911C149.305 8.72486 148.832 8.60712 148.301 8.60712C146.808 8.60712 146.062 9.43693 146.062 11.0966V12.9085H149.216V15.2805H146.076V26.255H143.001V15.2805H140.683V12.9085H143.001V10.7446C143.001 9.33663 143.47 8.22741 144.406 7.41473C145.342 6.60174 146.513 6.19556 147.918 6.19556C148.678 6.19556 149.278 6.27779 149.719 6.44319V8.95911ZM158.584 26.112C157.984 26.4073 157.193 26.5556 156.212 26.5556C153.58 26.5556 152.264 25.3127 152.264 22.8286V15.2818H149.998V12.9101H152.264V9.82069L155.339 8.96066V12.9101H158.585V15.2818H155.339V21.9545C155.339 22.7448 155.484 23.3098 155.776 23.6487C156.068 23.9876 156.553 24.1571 157.233 24.1571C157.754 24.1571 158.205 24.01 158.584 23.7135V26.112ZM184.662 26.255H181.204L179.495 21.4969H172.022L170.379 26.255H166.933L174.048 7.56425H177.599L184.662 26.255H184.662ZM178.659 18.9692L176.023 11.5136C175.944 11.2701 175.859 10.8798 175.772 10.3409H175.719C175.64 10.8362 175.551 11.2277 175.454 11.5136L172.844 18.9692H178.659ZM196.958 14.1725L189.631 23.8951H196.932V26.255H185.324V25.1208L192.81 15.2671H186.04V12.9073H196.958V14.1725ZM211.388 26.255H208.315V24.1427H208.263C207.37 25.7588 205.983 26.5674 204.102 26.5674C200.896 26.5674 199.292 24.6735 199.292 20.8842V12.9073H202.366V20.5718C202.366 22.9703 203.307 24.1692 205.189 24.1692C206.099 24.1692 206.847 23.8397 207.435 23.1793C208.023 22.5189 208.316 21.6546 208.316 20.5852V12.9073H211.391L211.388 26.255ZM223.275 15.7886C222.903 15.5014 222.369 15.3587 221.671 15.3587C220.761 15.3587 220.001 15.7621 219.391 16.5707C218.782 17.3781 218.477 18.478 218.477 19.8678V26.255H215.403V12.9076H218.477V15.6577H218.529C218.829 14.7192 219.291 13.9872 219.913 13.4617C220.536 12.9365 221.232 12.673 222 12.673C222.556 12.673 222.981 12.7565 223.272 12.9207L223.275 15.7886H223.275ZM236.963 20.4024H227.713C227.748 21.6359 228.134 22.5875 228.873 23.2572C229.61 23.9256 230.624 24.2605 231.914 24.2605C233.363 24.2605 234.692 23.8344 235.902 22.9834V25.4199C234.666 26.1849 233.031 26.5674 230.999 26.5674C229.002 26.5674 227.437 25.9612 226.302 24.7489C225.166 23.5366 224.6 21.8318 224.6 19.6336C224.6 17.5569 225.224 15.8639 226.476 14.5563C227.725 13.2487 229.278 12.5948 231.134 12.5948C232.989 12.5948 234.423 13.1814 235.439 14.3538C236.455 15.5266 236.964 17.1557 236.964 19.2417L236.963 20.4024H236.963ZM233.995 18.2649C233.981 17.1784 233.726 16.3337 233.213 15.7303C232.7 15.1269 231.994 14.8251 231.092 14.8251C230.21 14.8251 229.46 15.1428 228.847 15.7767C228.233 16.4106 227.855 17.2407 227.714 18.2662H233.995V18.2649Z" fill="#5C5C5E"/>
</g>
<defs>
<clipPath id="clip0_5_286">
<rect width="237" height="33" fill="white"/>
</clipPath>
</defs>
</svg>
