<svg width="85" height="85" viewBox="0 0 85 85" fill="none" xmlns="http://www.w3.org/2000/svg">
<path d="M39.7195 0.0664317C39.5369 0.0830316 38.9559 0.141131 38.433 0.182631C26.3732 1.26993 15.0769 7.77711 7.92233 17.7786C3.93834 23.3396 1.39025 29.6475 0.427453 36.329C0.0871542 38.6613 0.0456543 39.3502 0.0456543 42.5125C0.0456543 45.6748 0.0871542 46.3637 0.427453 48.696C2.73485 64.6402 14.0809 78.0364 29.4691 82.9997C32.2246 83.8878 35.1296 84.4937 38.433 84.8589C39.7195 85 45.2805 85 46.567 84.8589C52.2691 84.2281 57.0997 82.8171 61.8638 80.3853C62.5942 80.0118 62.7353 79.9122 62.6357 79.8292C62.5693 79.7794 59.4569 75.6045 55.7219 70.5581L48.9325 61.3866L40.425 48.7956C35.7438 41.8734 31.8926 36.2128 31.8594 36.2128C31.8262 36.2045 31.793 41.7987 31.7764 48.6296C31.7515 60.5898 31.7432 61.0712 31.5938 61.3534C31.378 61.7601 31.212 61.9261 30.8634 62.1087C30.5979 62.2415 30.3655 62.2664 29.1122 62.2664H27.6763L27.2945 62.0257C27.0455 61.868 26.8629 61.6605 26.7384 61.4198L26.5641 61.0463L26.5807 44.4049L26.6056 27.7551L26.8629 27.4314C26.9957 27.2571 27.2779 27.033 27.4771 26.9251C27.8174 26.7591 27.9502 26.7425 29.3861 26.7425C31.0793 26.7425 31.3615 26.8089 31.8013 27.2903C31.9258 27.4231 36.5323 34.3619 42.0435 42.72C47.5547 51.0781 55.0911 62.4905 58.7929 68.093L65.5158 78.2771L65.8561 78.053C68.869 76.0942 72.0562 73.3054 74.5794 70.4004C79.9495 64.2335 83.4106 56.7137 84.5726 48.696C84.9129 46.3637 84.9544 45.6748 84.9544 42.5125C84.9544 39.3502 84.9129 38.6613 84.5726 36.329C82.2652 20.3848 70.9191 6.98861 55.531 2.02522C52.8169 1.14543 49.9285 0.53953 46.6915 0.174331C45.8947 0.0913316 40.4084 3.19257e-05 39.7195 0.0664317ZM57.0997 25.7465C57.4981 25.9457 57.8218 26.3275 57.938 26.7259C58.0044 26.9417 58.021 31.5565 58.0044 41.9564L57.9795 56.8797L55.3484 52.846L52.709 48.8122V37.9641C52.709 30.9506 52.7422 27.0081 52.792 26.8172C52.9248 26.3524 53.2153 25.9872 53.6137 25.7714C53.954 25.5971 54.0785 25.5805 55.3816 25.5805C56.61 25.5805 56.8258 25.5971 57.0997 25.7465Z" fill="#5C5C5E"/>
<path d="M65.1008 78.4597C64.8103 78.6423 64.719 78.7668 64.9763 78.6257C65.1589 78.5178 65.4577 78.2937 65.4079 78.2854C65.383 78.2854 65.2419 78.3684 65.1008 78.4597ZM64.5281 78.8332C64.3787 78.9494 64.3787 78.9577 64.5613 78.8664C64.6609 78.8166 64.7439 78.7585 64.7439 78.7419C64.7439 78.6755 64.7024 78.6921 64.5281 78.8332ZM64.1131 79.0822C63.9637 79.1984 63.9637 79.2067 64.1463 79.1154C64.2459 79.0656 64.3289 79.0075 64.3289 78.9909C64.3289 78.9245 64.2874 78.9411 64.1131 79.0822ZM63.6981 79.3312C63.5487 79.4474 63.5487 79.4557 63.7313 79.3644C63.8309 79.3146 63.9139 79.2565 63.9139 79.2399C63.9139 79.1735 63.8724 79.1901 63.6981 79.3312ZM63.0673 79.6632C62.7519 79.8292 62.7685 79.8956 63.0839 79.7379C63.225 79.6632 63.3329 79.5885 63.3329 79.5719C63.3329 79.5138 63.3246 79.5221 63.0673 79.6632Z" fill="#5C5C5E"/>
</svg>
