<svg width="85" height="85" viewBox="0 0 85 85" fill="none" xmlns="http://www.w3.org/2000/svg">
<path d="M42.5124 80.4295C41.4959 80.4295 40.4883 80.1638 39.5976 79.6503L30.3184 74.1554C28.9319 73.3798 29.6083 73.1053 30.0652 72.9477C31.914 72.3014 32.2876 72.1544 34.2603 71.0334C34.4675 70.9148 34.7384 70.9573 34.9509 71.083L42.0803 75.3135C42.3371 75.4534 42.7036 75.4534 42.9409 75.3135L70.7377 59.268C70.9945 59.121 71.1627 58.8235 71.1627 58.5172V26.4421C71.1627 26.1216 70.9962 25.8365 70.7324 25.6771L42.948 9.64396C42.6912 9.49167 42.3495 9.49167 42.0927 9.64396L14.3119 25.6753C14.0427 25.8276 13.8709 26.1269 13.8709 26.4332V58.5101C13.8709 58.8165 14.0374 59.1086 14.303 59.2539L21.9158 63.6508C26.049 65.7174 28.5742 63.2825 28.5742 60.8334V29.1763C28.5742 28.7247 28.9283 28.3758 29.3817 28.3758H32.9021C33.3412 28.3758 33.7025 28.7229 33.7025 29.1763V60.8494C33.7025 66.3602 30.6974 69.5265 25.4717 69.5265C23.8637 69.5265 22.5976 69.5265 19.063 67.7875L11.7707 63.5853C9.96802 62.5405 8.85416 60.5908 8.85416 58.5119V26.435C8.85416 24.3472 9.96802 22.3993 11.769 21.3687L39.5958 5.31605C41.356 4.32084 43.6935 4.32084 45.4413 5.31605L73.2328 21.3757C75.0249 22.4117 76.1458 24.3543 76.1458 26.4421V58.519C76.1458 60.5997 75.0249 62.5405 73.231 63.5853L45.4396 79.6361C44.5489 80.1515 43.5395 80.4153 42.5106 80.4153" fill="#5C5C5E"/>
<path d="M51.0992 58.3259C38.9371 58.3259 36.3871 52.7425 36.3871 48.0604C36.3871 47.6159 36.7466 47.26 37.1928 47.26H40.7841C41.1807 47.26 41.5154 47.5486 41.5774 47.94C42.1193 51.5985 43.7343 53.4437 51.0885 53.4437C56.9465 53.4437 59.438 52.1209 59.438 49.0131C59.438 47.2246 58.7279 45.8964 49.6276 45.0057C42.0148 44.2549 37.3115 42.5779 37.3115 36.4898C37.3115 30.8815 42.0431 27.5417 49.9676 27.5417C58.8678 27.5417 63.279 30.6319 63.835 37.2689C63.8562 37.4991 63.773 37.7205 63.619 37.8887C63.4667 38.0481 63.2506 38.1455 63.0275 38.1455H59.4168C59.0414 38.1455 58.7137 37.8816 58.6376 37.5186C57.7681 33.6706 55.6661 32.4399 49.9534 32.4399C43.559 32.4399 42.8152 34.6658 42.8152 36.3357C42.8152 38.3598 43.6918 38.9512 52.3193 40.0934C60.8635 41.2267 64.9205 42.8276 64.9205 48.8325C64.9205 54.8852 59.8683 58.3578 51.0602 58.3578" fill="#5C5C5E"/>
</svg>
