<svg width="394" height="287" viewBox="0 0 394 287" fill="none" xmlns="http://www.w3.org/2000/svg">
<g clip-path="url(#clip0_2_28)">
<path d="M229.504 50.5948C236.889 50.5948 242.875 44.5994 242.875 37.2037C242.875 29.8081 236.889 23.8127 229.504 23.8127C222.12 23.8127 216.134 29.8081 216.134 37.2037C216.134 44.5994 222.12 50.5948 229.504 50.5948Z" fill="#F2F2F2"/>
<path d="M333.223 249.333C353.096 234.172 362.588 208.697 356.646 184.394C356.498 183.791 356.342 183.188 356.178 182.587C352.239 168.162 342.492 154.451 328.287 149.842C316.359 145.972 303.34 148.948 290.896 147.409C266.469 144.388 247.531 124.593 234.206 103.867C220.88 83.1415 210.639 59.9421 192.933 42.8197C163.747 14.5964 116.137 8.51989 79.9504 26.8912C43.7639 45.2625 20.7134 86.0208 21.6965 126.642C22.6796 167.262 46.7572 206.099 81.7238 226.704C94.5692 234.273 109.426 239.636 124.212 237.759C137.041 236.131 148.698 229.227 161.467 227.177C181.542 223.955 201.49 233.046 218.854 243.639C236.218 254.233 252.99 266.789 272.722 271.701C291.881 276.469 315.618 262.763 333.223 249.333Z" fill="#F2F2F2"/>
<path d="M304.669 27.7442C304.234 27.4533 303.793 27.1775 303.357 26.8966C290.764 18.83 277.266 12.2768 263.142 7.37234L259.867 52.6197H239.106V0.767298C237.799 0.496476 236.482 0.2407 235.165 -3.05176e-05V52.6197H210.493C196.911 52.6197 183.885 47.2159 174.281 37.597C164.677 27.9782 159.282 14.9322 159.282 1.32906V1.32902C157.96 1.61488 156.648 1.92081 155.336 2.2468V52.6197H135.24L132.121 9.47373C117.606 15.0488 103.827 22.3803 91.0894 31.305C90.869 31.4555 90.6487 31.6109 90.4334 31.7614C89.3267 32.5387 88.2351 33.3312 87.1485 34.1336V206.753H146.372L145.326 192.233L139.567 112.516H255.536L249.777 192.233L248.73 206.753H307.298V29.4895C306.427 28.8977 305.551 28.3159 304.669 27.7442ZM155.336 99.3515H138.616L135.526 56.5717H155.336V99.3515ZM235.165 99.3515H207.083V98.5039C207.083 98.0965 207.003 97.6931 206.847 97.3167C206.691 96.9403 206.463 96.5984 206.175 96.3105C205.887 96.0227 205.545 95.7945 205.169 95.639C204.793 95.4835 204.39 95.4039 203.983 95.4045H191.775C191.369 95.4044 190.966 95.4845 190.591 95.6402C190.215 95.7959 189.874 96.0242 189.587 96.312C189.299 96.5998 189.071 96.9416 188.916 97.3177C188.76 97.6938 188.68 98.0969 188.681 98.5039V99.3515H159.282V56.5717H235.165V99.3515ZM239.106 99.3515V56.5717H259.582L256.492 99.3515H239.106Z" fill="#3F3D56"/>
<path d="M-1.52588e-05 217.807C4.35013 222.969 9.0553 227.82 14.0811 232.326L379.919 232.827C384.945 228.322 389.65 223.47 394 218.308L-1.52588e-05 217.807Z" fill="#3F3D56"/>
<path d="M248.086 171.316V214.298C248.087 214.846 248.304 215.371 248.691 215.758C249.078 216.146 249.602 216.363 250.149 216.364H313.747C314.293 216.363 314.818 216.146 315.205 215.758C315.591 215.371 315.809 214.846 315.809 214.298V171.316C315.808 170.768 315.59 170.244 315.203 169.857C314.817 169.47 314.293 169.253 313.747 169.252H250.149C249.603 169.253 249.079 169.47 248.692 169.857C248.306 170.244 248.088 170.768 248.086 171.316Z" fill="#3F3D56"/>
<path d="M249.578 171.85V213.768C249.579 214.061 249.695 214.341 249.902 214.548C250.108 214.755 250.389 214.871 250.681 214.872H313.217C313.509 214.871 313.789 214.755 313.996 214.548C314.203 214.341 314.319 214.061 314.32 213.768V171.85C314.32 171.557 314.203 171.276 313.997 171.069C313.79 170.862 313.51 170.745 313.217 170.744H250.681C250.388 170.745 250.108 170.862 249.901 171.069C249.695 171.276 249.578 171.557 249.578 171.85Z" fill="#6C63FF"/>
<path d="M246.756 222.681C246.873 222.827 247.021 222.945 247.19 223.026C247.358 223.107 247.543 223.148 247.73 223.147H315.828C316.014 223.147 316.198 223.105 316.366 223.025C316.534 222.944 316.682 222.828 316.799 222.683C316.916 222.538 317 222.369 317.044 222.187C317.088 222.006 317.091 221.817 317.052 221.635L315.995 216.606C315.951 216.401 315.857 216.21 315.721 216.051C315.585 215.891 315.411 215.769 315.215 215.694C315.073 215.639 314.923 215.61 314.77 215.61H248.782C248.63 215.61 248.479 215.639 248.338 215.694C248.142 215.769 247.968 215.891 247.832 216.051C247.696 216.21 247.601 216.401 247.558 216.606L246.5 221.635C246.463 221.817 246.466 222.006 246.511 222.187C246.555 222.368 246.639 222.536 246.756 222.681Z" fill="#2F2E41"/>
<path d="M312.434 217.776H314.042C314.177 217.776 314.287 217.667 314.287 217.531V216.761C314.287 216.625 314.177 216.516 314.042 216.516H312.434C312.299 216.516 312.189 216.625 312.189 216.761V217.531C312.189 217.667 312.299 217.776 312.434 217.776Z" fill="#3F3D56"/>
<path d="M308.239 217.776H309.848C309.983 217.776 310.092 217.667 310.092 217.531V216.761C310.092 216.625 309.983 216.516 309.848 216.516H308.239C308.104 216.516 307.995 216.625 307.995 216.761V217.531C307.995 217.667 308.104 217.776 308.239 217.776Z" fill="#3F3D56"/>
<path d="M304.044 217.776H305.653C305.788 217.776 305.897 217.667 305.897 217.531V216.761C305.897 216.625 305.788 216.516 305.653 216.516H304.044C303.909 216.516 303.8 216.625 303.8 216.761V217.531C303.8 217.667 303.909 217.776 304.044 217.776Z" fill="#3F3D56"/>
<path d="M299.85 217.776H301.458C301.593 217.776 301.702 217.667 301.702 217.531V216.761C301.702 216.625 301.593 216.516 301.458 216.516H299.85C299.715 216.516 299.605 216.625 299.605 216.761V217.531C299.605 217.667 299.715 217.776 299.85 217.776Z" fill="#3F3D56"/>
<path d="M295.655 217.776H297.263C297.398 217.776 297.508 217.667 297.508 217.531V216.761C297.508 216.625 297.398 216.516 297.263 216.516H295.655C295.52 216.516 295.41 216.625 295.41 216.761V217.531C295.41 217.667 295.52 217.776 295.655 217.776Z" fill="#3F3D56"/>
<path d="M291.46 217.776H293.068C293.203 217.776 293.313 217.667 293.313 217.531V216.761C293.313 216.625 293.203 216.516 293.068 216.516H291.46C291.325 216.516 291.216 216.625 291.216 216.761V217.531C291.216 217.667 291.325 217.776 291.46 217.776Z" fill="#3F3D56"/>
<path d="M287.265 217.776H288.874C289.009 217.776 289.118 217.667 289.118 217.531V216.761C289.118 216.625 289.009 216.516 288.874 216.516H287.265C287.13 216.516 287.021 216.625 287.021 216.761V217.531C287.021 217.667 287.13 217.776 287.265 217.776Z" fill="#3F3D56"/>
<path d="M283.07 217.776H284.679C284.814 217.776 284.923 217.667 284.923 217.531V216.761C284.923 216.625 284.814 216.516 284.679 216.516H283.07C282.935 216.516 282.826 216.625 282.826 216.761V217.531C282.826 217.667 282.935 217.776 283.07 217.776Z" fill="#3F3D56"/>
<path d="M278.876 217.776H280.484C280.619 217.776 280.729 217.667 280.729 217.531V216.761C280.729 216.625 280.619 216.516 280.484 216.516H278.876C278.741 216.516 278.631 216.625 278.631 216.761V217.531C278.631 217.667 278.741 217.776 278.876 217.776Z" fill="#3F3D56"/>
<path d="M274.681 217.776H276.289C276.424 217.776 276.534 217.667 276.534 217.531V216.761C276.534 216.625 276.424 216.516 276.289 216.516H274.681C274.546 216.516 274.436 216.625 274.436 216.761V217.531C274.436 217.667 274.546 217.776 274.681 217.776Z" fill="#3F3D56"/>
<path d="M270.486 217.776H272.095C272.23 217.776 272.339 217.667 272.339 217.531V216.761C272.339 216.625 272.23 216.516 272.095 216.516H270.486C270.351 216.516 270.242 216.625 270.242 216.761V217.531C270.242 217.667 270.351 217.776 270.486 217.776Z" fill="#3F3D56"/>
<path d="M266.291 217.776H267.9C268.035 217.776 268.144 217.667 268.144 217.531V216.761C268.144 216.625 268.035 216.516 267.9 216.516H266.291C266.156 216.516 266.047 216.625 266.047 216.761V217.531C266.047 217.667 266.156 217.776 266.291 217.776Z" fill="#3F3D56"/>
<path d="M262.097 217.776H263.705C263.84 217.776 263.949 217.667 263.949 217.531V216.761C263.949 216.625 263.84 216.516 263.705 216.516H262.097C261.962 216.516 261.852 216.625 261.852 216.761V217.531C261.852 217.667 261.962 217.776 262.097 217.776Z" fill="#3F3D56"/>
<path d="M257.902 217.776H259.51C259.645 217.776 259.755 217.667 259.755 217.531V216.761C259.755 216.625 259.645 216.516 259.51 216.516H257.902C257.767 216.516 257.657 216.625 257.657 216.761V217.531C257.657 217.667 257.767 217.776 257.902 217.776Z" fill="#3F3D56"/>
<path d="M253.707 217.776H255.316C255.451 217.776 255.56 217.667 255.56 217.531V216.761C255.56 216.625 255.451 216.516 255.316 216.516H253.707C253.572 216.516 253.463 216.625 253.463 216.761V217.531C253.463 217.667 253.572 217.776 253.707 217.776Z" fill="#3F3D56"/>
<path d="M249.512 217.776H251.121C251.256 217.776 251.365 217.667 251.365 217.531V216.761C251.365 216.625 251.256 216.516 251.121 216.516H249.512C249.377 216.516 249.268 216.625 249.268 216.761V217.531C249.268 217.667 249.377 217.776 249.512 217.776Z" fill="#3F3D56"/>
<path d="M312.483 219.877H314.092C314.227 219.877 314.336 219.767 314.336 219.632V218.861C314.336 218.726 314.227 218.616 314.092 218.616H312.483C312.348 218.616 312.239 218.726 312.239 218.861V219.632C312.239 219.767 312.348 219.877 312.483 219.877Z" fill="#3F3D56"/>
<path d="M308.289 219.877H309.897C310.032 219.877 310.142 219.767 310.142 219.632V218.861C310.142 218.726 310.032 218.616 309.897 218.616H308.289C308.154 218.616 308.044 218.726 308.044 218.861V219.632C308.044 219.767 308.154 219.877 308.289 219.877Z" fill="#3F3D56"/>
<path d="M304.094 219.877H305.702C305.837 219.877 305.947 219.767 305.947 219.632V218.861C305.947 218.726 305.837 218.616 305.702 218.616H304.094C303.959 218.616 303.849 218.726 303.849 218.861V219.632C303.849 219.767 303.959 219.877 304.094 219.877Z" fill="#3F3D56"/>
<path d="M299.899 219.877H301.508C301.643 219.877 301.752 219.767 301.752 219.632V218.861C301.752 218.726 301.643 218.616 301.508 218.616H299.899C299.764 218.616 299.655 218.726 299.655 218.861V219.632C299.655 219.767 299.764 219.877 299.899 219.877Z" fill="#3F3D56"/>
<path d="M295.704 219.877H297.313C297.448 219.877 297.557 219.767 297.557 219.632V218.861C297.557 218.726 297.448 218.616 297.313 218.616H295.704C295.569 218.616 295.46 218.726 295.46 218.861V219.632C295.46 219.767 295.569 219.877 295.704 219.877Z" fill="#3F3D56"/>
<path d="M291.51 219.877H293.118C293.253 219.877 293.362 219.767 293.362 219.632V218.861C293.362 218.726 293.253 218.616 293.118 218.616H291.51C291.375 218.616 291.265 218.726 291.265 218.861V219.632C291.265 219.767 291.375 219.877 291.51 219.877Z" fill="#3F3D56"/>
<path d="M287.315 219.877H288.923C289.058 219.877 289.168 219.767 289.168 219.632V218.861C289.168 218.726 289.058 218.616 288.923 218.616H287.315C287.18 218.616 287.07 218.726 287.07 218.861V219.632C287.07 219.767 287.18 219.877 287.315 219.877Z" fill="#3F3D56"/>
<path d="M283.12 219.877H284.728C284.863 219.877 284.973 219.767 284.973 219.632V218.861C284.973 218.726 284.863 218.616 284.728 218.616H283.12C282.985 218.616 282.876 218.726 282.876 218.861V219.632C282.876 219.767 282.985 219.877 283.12 219.877Z" fill="#3F3D56"/>
<path d="M278.925 219.877H280.534C280.669 219.877 280.778 219.767 280.778 219.632V218.861C280.778 218.726 280.669 218.616 280.534 218.616H278.925C278.79 218.616 278.681 218.726 278.681 218.861V219.632C278.681 219.767 278.79 219.877 278.925 219.877Z" fill="#3F3D56"/>
<path d="M274.73 219.877H276.339C276.474 219.877 276.583 219.767 276.583 219.632V218.861C276.583 218.726 276.474 218.616 276.339 218.616H274.73C274.595 218.616 274.486 218.726 274.486 218.861V219.632C274.486 219.767 274.595 219.877 274.73 219.877Z" fill="#3F3D56"/>
<path d="M270.536 219.877H272.144C272.279 219.877 272.389 219.767 272.389 219.632V218.861C272.389 218.726 272.279 218.616 272.144 218.616H270.536C270.401 218.616 270.291 218.726 270.291 218.861V219.632C270.291 219.767 270.401 219.877 270.536 219.877Z" fill="#3F3D56"/>
<path d="M266.341 219.877H267.949C268.084 219.877 268.194 219.767 268.194 219.632V218.861C268.194 218.726 268.084 218.616 267.949 218.616H266.341C266.206 218.616 266.096 218.726 266.096 218.861V219.632C266.096 219.767 266.206 219.877 266.341 219.877Z" fill="#3F3D56"/>
<path d="M262.146 219.877H263.755C263.89 219.877 263.999 219.767 263.999 219.632V218.861C263.999 218.726 263.89 218.616 263.755 218.616H262.146C262.011 218.616 261.902 218.726 261.902 218.861V219.632C261.902 219.767 262.011 219.877 262.146 219.877Z" fill="#3F3D56"/>
<path d="M257.951 219.877H259.56C259.695 219.877 259.804 219.767 259.804 219.632V218.861C259.804 218.726 259.695 218.616 259.56 218.616H257.951C257.816 218.616 257.707 218.726 257.707 218.861V219.632C257.707 219.767 257.816 219.877 257.951 219.877Z" fill="#3F3D56"/>
<path d="M253.757 219.877H255.365C255.5 219.877 255.61 219.767 255.61 219.632V218.861C255.61 218.726 255.5 218.616 255.365 218.616H253.757C253.622 218.616 253.512 218.726 253.512 218.861V219.632C253.512 219.767 253.622 219.877 253.757 219.877Z" fill="#3F3D56"/>
<path d="M249.562 219.877H251.17C251.305 219.877 251.415 219.767 251.415 219.632V218.861C251.415 218.726 251.305 218.616 251.17 218.616H249.562C249.427 218.616 249.317 218.726 249.317 218.861V219.632C249.317 219.767 249.427 219.877 249.562 219.877Z" fill="#3F3D56"/>
<path d="M277.667 222.398H293.957C294.092 222.398 294.201 222.288 294.201 222.153V221.382C294.201 221.247 294.092 221.137 293.957 221.137H277.667C277.532 221.137 277.422 221.247 277.422 221.382V222.153C277.422 222.288 277.532 222.398 277.667 222.398Z" fill="#3F3D56"/>
<path d="M260.408 179.915H258.984C258.552 179.915 258.202 180.265 258.202 180.698C258.202 181.13 258.552 181.48 258.984 181.48H260.408C260.84 181.48 261.19 181.13 261.19 180.698C261.19 180.265 260.84 179.915 260.408 179.915Z" fill="white"/>
<path d="M276.694 179.915H275.27C274.838 179.915 274.488 180.265 274.488 180.698C274.488 181.13 274.838 181.48 275.27 181.48H276.694C277.126 181.48 277.475 181.13 277.475 180.698C277.475 180.265 277.126 179.915 276.694 179.915Z" fill="white"/>
<path d="M281.308 179.915H279.884C279.452 179.915 279.102 180.265 279.102 180.698C279.102 181.13 279.452 181.48 279.884 181.48H281.308C281.74 181.48 282.09 181.13 282.09 180.698C282.09 180.265 281.74 179.915 281.308 179.915Z" fill="white"/>
<path d="M272.264 179.784H263.414C262.982 179.784 262.632 180.135 262.632 180.567C262.632 180.999 262.982 181.35 263.414 181.35H272.264C272.696 181.35 273.046 180.999 273.046 180.567C273.046 180.135 272.696 179.784 272.264 179.784Z" fill="white"/>
<path d="M293.978 179.784H285.128C284.697 179.784 284.347 180.135 284.347 180.567C284.347 180.999 284.697 181.35 285.128 181.35H293.978C294.41 181.35 294.76 180.999 294.76 180.567C294.76 180.135 294.41 179.784 293.978 179.784Z" fill="white"/>
<path d="M264.751 183.449H263.327C262.895 183.449 262.545 183.799 262.545 184.232C262.545 184.664 262.895 185.015 263.327 185.015H264.751C265.183 185.015 265.533 184.664 265.533 184.232C265.533 183.799 265.183 183.449 264.751 183.449Z" fill="white"/>
<path d="M281.037 183.449H279.613C279.181 183.449 278.831 183.799 278.831 184.232C278.831 184.664 279.181 185.015 279.613 185.015H281.037C281.468 185.015 281.818 184.664 281.818 184.232C281.818 183.799 281.468 183.449 281.037 183.449Z" fill="white"/>
<path d="M285.651 183.449H284.227C283.795 183.449 283.445 183.799 283.445 184.232C283.445 184.664 283.795 185.015 284.227 185.015H285.651C286.083 185.015 286.433 184.664 286.433 184.232C286.433 183.799 286.083 183.449 285.651 183.449Z" fill="white"/>
<path d="M276.607 183.318H267.757C267.325 183.318 266.975 183.669 266.975 184.101C266.975 184.533 267.325 184.884 267.757 184.884H276.607C277.039 184.884 277.389 184.533 277.389 184.101C277.389 183.669 277.039 183.318 276.607 183.318Z" fill="white"/>
<path d="M298.321 183.318H289.471C289.039 183.318 288.689 183.669 288.689 184.101C288.689 184.533 289.039 184.884 289.471 184.884H298.321C298.753 184.884 299.103 184.533 299.103 184.101C299.103 183.669 298.753 183.318 298.321 183.318Z" fill="white"/>
<path d="M269.094 186.983H267.67C267.238 186.983 266.888 187.333 266.888 187.766C266.888 188.198 267.238 188.549 267.67 188.549H269.094C269.525 188.549 269.875 188.198 269.875 187.766C269.875 187.333 269.525 186.983 269.094 186.983Z" fill="white"/>
<path d="M285.38 186.983H283.956C283.524 186.983 283.174 187.333 283.174 187.766C283.174 188.198 283.524 188.549 283.956 188.549H285.38C285.811 188.549 286.161 188.198 286.161 187.766C286.161 187.333 285.811 186.983 285.38 186.983Z" fill="white"/>
<path d="M289.994 186.983H288.57C288.138 186.983 287.788 187.333 287.788 187.766C287.788 188.198 288.138 188.549 288.57 188.549H289.994C290.426 188.549 290.776 188.198 290.776 187.766C290.776 187.333 290.426 186.983 289.994 186.983Z" fill="white"/>
<path d="M280.95 186.852H272.1C271.668 186.852 271.318 187.203 271.318 187.635C271.318 188.068 271.668 188.418 272.1 188.418H280.95C281.382 188.418 281.731 188.068 281.731 187.635C281.731 187.203 281.382 186.852 280.95 186.852Z" fill="white"/>
<path d="M302.664 186.852H293.814C293.382 186.852 293.032 187.203 293.032 187.635C293.032 188.068 293.382 188.418 293.814 188.418H302.664C303.096 188.418 303.446 188.068 303.446 187.635C303.446 187.203 303.096 186.852 302.664 186.852Z" fill="white"/>
<path d="M273.437 190.517H272.013C271.581 190.517 271.231 190.867 271.231 191.3C271.231 191.732 271.581 192.083 272.013 192.083H273.437C273.868 192.083 274.218 191.732 274.218 191.3C274.218 190.867 273.868 190.517 273.437 190.517Z" fill="white"/>
<path d="M289.723 190.517H288.299C287.867 190.517 287.517 190.867 287.517 191.3C287.517 191.732 287.867 192.083 288.299 192.083H289.723C290.154 192.083 290.504 191.732 290.504 191.3C290.504 190.867 290.154 190.517 289.723 190.517Z" fill="white"/>
<path d="M294.337 190.517H292.913C292.481 190.517 292.131 190.867 292.131 191.3C292.131 191.732 292.481 192.083 292.913 192.083H294.337C294.769 192.083 295.119 191.732 295.119 191.3C295.119 190.867 294.769 190.517 294.337 190.517Z" fill="white"/>
<path d="M285.293 190.386H276.442C276.011 190.386 275.661 190.737 275.661 191.169C275.661 191.602 276.011 191.952 276.442 191.952H285.293C285.724 191.952 286.074 191.602 286.074 191.169C286.074 190.737 285.724 190.386 285.293 190.386Z" fill="white"/>
<path d="M276.694 204.57H275.27C274.838 204.57 274.488 204.92 274.488 205.353C274.488 205.785 274.838 206.136 275.27 206.136H276.694C277.126 206.136 277.475 205.785 277.475 205.353C277.475 204.92 277.126 204.57 276.694 204.57Z" fill="white"/>
<path d="M281.308 204.57H279.884C279.452 204.57 279.102 204.92 279.102 205.353C279.102 205.785 279.452 206.136 279.884 206.136H281.308C281.74 206.136 282.09 205.785 282.09 205.353C282.09 204.92 281.74 204.57 281.308 204.57Z" fill="white"/>
<path d="M293.978 204.7H285.128C284.697 204.7 284.347 205.051 284.347 205.483C284.347 205.916 284.697 206.266 285.128 206.266H293.978C294.41 206.266 294.76 205.916 294.76 205.483C294.76 205.051 294.41 204.7 293.978 204.7Z" fill="white"/>
<path d="M260.408 204.57H258.984C258.552 204.57 258.202 204.92 258.202 205.353C258.202 205.785 258.552 206.136 258.984 206.136H260.408C260.84 206.136 261.19 205.785 261.19 205.353C261.19 204.92 260.84 204.57 260.408 204.57Z" fill="white"/>
<path d="M272.264 204.7H263.414C262.982 204.7 262.632 205.051 262.632 205.483C262.632 205.916 262.982 206.266 263.414 206.266H272.264C272.696 206.266 273.046 205.916 273.046 205.483C273.046 205.051 272.696 204.7 272.264 204.7Z" fill="white"/>
<path d="M264.751 201.036H263.327C262.895 201.036 262.545 201.386 262.545 201.819C262.545 202.251 262.895 202.601 263.327 202.601H264.751C265.183 202.601 265.533 202.251 265.533 201.819C265.533 201.386 265.183 201.036 264.751 201.036Z" fill="white"/>
<path d="M281.037 201.036H279.613C279.181 201.036 278.831 201.386 278.831 201.819C278.831 202.251 279.181 202.601 279.613 202.601H281.037C281.468 202.601 281.818 202.251 281.818 201.819C281.818 201.386 281.468 201.036 281.037 201.036Z" fill="white"/>
<path d="M285.651 201.036H284.227C283.795 201.036 283.445 201.386 283.445 201.819C283.445 202.251 283.795 202.601 284.227 202.601H285.651C286.083 202.601 286.433 202.251 286.433 201.819C286.433 201.386 286.083 201.036 285.651 201.036Z" fill="white"/>
<path d="M276.607 201.166H267.757C267.325 201.166 266.975 201.517 266.975 201.949C266.975 202.381 267.325 202.732 267.757 202.732H276.607C277.039 202.732 277.389 202.381 277.389 201.949C277.389 201.517 277.039 201.166 276.607 201.166Z" fill="white"/>
<path d="M269.094 197.502H267.67C267.238 197.502 266.888 197.852 266.888 198.285C266.888 198.717 267.238 199.067 267.67 199.067H269.094C269.525 199.067 269.875 198.717 269.875 198.285C269.875 197.852 269.525 197.502 269.094 197.502Z" fill="white"/>
<path d="M285.38 197.502H283.956C283.524 197.502 283.174 197.852 283.174 198.285C283.174 198.717 283.524 199.067 283.956 199.067H285.38C285.811 199.067 286.161 198.717 286.161 198.285C286.161 197.852 285.811 197.502 285.38 197.502Z" fill="white"/>
<path d="M289.994 197.502H288.57C288.138 197.502 287.788 197.852 287.788 198.285C287.788 198.717 288.138 199.067 288.57 199.067H289.994C290.426 199.067 290.776 198.717 290.776 198.285C290.776 197.852 290.426 197.502 289.994 197.502Z" fill="white"/>
<path d="M280.95 197.632H272.1C271.668 197.632 271.318 197.983 271.318 198.415C271.318 198.847 271.668 199.198 272.1 199.198H280.95C281.382 199.198 281.731 198.847 281.731 198.415C281.731 197.983 281.382 197.632 280.95 197.632Z" fill="white"/>
<path d="M273.437 193.968H272.013C271.581 193.968 271.231 194.318 271.231 194.75C271.231 195.183 271.581 195.533 272.013 195.533H273.437C273.868 195.533 274.218 195.183 274.218 194.75C274.218 194.318 273.868 193.968 273.437 193.968Z" fill="white"/>
<path d="M289.723 193.968H288.299C287.867 193.968 287.517 194.318 287.517 194.75C287.517 195.183 287.867 195.533 288.299 195.533H289.723C290.154 195.533 290.504 195.183 290.504 194.75C290.504 194.318 290.154 193.968 289.723 193.968Z" fill="white"/>
<path d="M294.337 193.968H292.913C292.481 193.968 292.131 194.318 292.131 194.75C292.131 195.183 292.481 195.533 292.913 195.533H294.337C294.769 195.533 295.119 195.183 295.119 194.75C295.119 194.318 294.769 193.968 294.337 193.968Z" fill="white"/>
<path d="M285.293 194.098H276.442C276.011 194.098 275.661 194.449 275.661 194.881C275.661 195.313 276.011 195.664 276.442 195.664H285.293C285.724 195.664 286.074 195.313 286.074 194.881C286.074 194.449 285.724 194.098 285.293 194.098Z" fill="white"/>
<path d="M252.837 245.987L246.152 235.405L267.135 218.652L275.796 209.043C276.921 207.794 278.353 206.863 279.95 206.343C281.547 205.823 283.252 205.731 284.896 206.078C286.539 206.425 288.063 207.197 289.314 208.318C290.566 209.439 291.502 210.87 292.029 212.467C292.81 214.833 292.642 217.411 291.561 219.656C290.48 221.901 288.57 223.637 286.235 224.499L272.54 229.552L252.837 245.987Z" fill="#FFB6B6"/>
<path d="M95.9887 169.254V220.69H131.968V169.254C131.968 168.884 131.85 168.524 131.631 168.226C131.412 167.928 131.104 167.708 130.751 167.599C130.584 167.544 130.41 167.517 130.235 167.519H97.7263C97.4985 167.518 97.2727 167.563 97.062 167.65C96.8513 167.737 96.6598 167.865 96.4985 168.026C96.3371 168.187 96.209 168.378 96.1215 168.589C96.0341 168.8 95.989 169.026 95.9887 169.254ZM110.03 186.928C110.039 185.914 110.448 184.944 111.167 184.231C111.886 183.517 112.858 183.117 113.871 183.117C114.883 183.117 115.855 183.517 116.574 184.231C117.293 184.944 117.702 185.914 117.711 186.928V192.896C117.706 193.913 117.299 194.886 116.579 195.603C115.86 196.32 114.886 196.723 113.871 196.723C112.855 196.723 111.881 196.32 111.162 195.603C110.442 194.886 110.035 193.913 110.03 192.896V186.928Z" fill="#2F2E41"/>
<path d="M95.8786 219.045V224.005C95.8794 224.262 95.9813 224.509 96.1623 224.691C96.3432 224.873 96.5885 224.976 96.845 224.978H131.111C131.368 224.977 131.614 224.874 131.795 224.692C131.976 224.509 132.078 224.263 132.078 224.005V219.045H95.8786Z" fill="#3F3D56"/>
<path d="M39.389 91.759V185.674C39.3899 186.871 39.865 188.018 40.71 188.865C41.555 189.711 42.7008 190.187 43.8957 190.188H182.854C184.049 190.187 185.195 189.711 186.04 188.865C186.885 188.018 187.36 186.871 187.361 185.674V91.759C187.358 90.5632 186.882 89.4173 186.037 88.5722C185.192 87.7271 184.048 87.2518 182.854 87.2503H43.8957C42.7018 87.2518 41.5571 87.7272 40.7124 88.5722C39.8677 89.4173 39.3918 90.5632 39.389 91.759Z" fill="#3F3D56"/>
<path d="M42.6489 92.9275V184.515C42.65 185.155 42.9041 185.768 43.3555 186.22C43.807 186.672 44.419 186.927 45.0575 186.928H181.697C182.336 186.927 182.948 186.672 183.399 186.22C183.85 185.768 184.105 185.155 184.106 184.515V92.9275C184.106 92.2872 183.852 91.6732 183.4 91.22C182.949 90.7668 182.336 90.5115 181.697 90.5101H45.0575C44.4182 90.5115 43.8056 90.7668 43.3541 91.22C42.9026 91.6732 42.6489 92.2872 42.6489 92.9275Z" fill="white"/>
<path d="M68.0068 224.642C68.1459 224.817 68.3227 224.958 68.5239 225.054C68.7251 225.151 68.9455 225.2 69.1686 225.199H150.46C150.683 225.199 150.902 225.149 151.103 225.053C151.303 224.957 151.48 224.817 151.62 224.645C151.76 224.472 151.86 224.27 151.912 224.053C151.965 223.837 151.968 223.611 151.923 223.393L150.661 217.39C150.608 217.145 150.496 216.918 150.333 216.728C150.17 216.537 149.963 216.391 149.729 216.302C149.56 216.235 149.38 216.201 149.198 216.202H70.4255C70.2438 216.201 70.0638 216.235 69.8947 216.302C69.6611 216.391 69.4535 216.537 69.2908 216.728C69.1282 216.918 69.0156 217.145 68.9633 217.39L67.7014 223.393C67.6565 223.611 67.6606 223.836 67.7134 224.052C67.7663 224.268 67.8665 224.47 68.0068 224.642Z" fill="#2F2E41"/>
<path d="M177.263 103.127H49.4095C49.2767 103.124 49.1502 103.069 49.0573 102.974C48.9643 102.879 48.9123 102.751 48.9123 102.618C48.9123 102.484 48.9643 102.357 49.0573 102.261C49.1502 102.166 49.2767 102.111 49.4095 102.108H177.263C177.396 102.111 177.522 102.166 177.615 102.261C177.708 102.357 177.76 102.484 177.76 102.618C177.76 102.751 177.708 102.879 177.615 102.974C177.522 103.069 177.396 103.124 177.263 103.127Z" fill="#3F3D56"/>
<path d="M58.1127 99.5084C59.7583 99.5084 61.0924 98.1425 61.0924 96.4576C61.0924 94.7727 59.7583 93.4068 58.1127 93.4068C56.467 93.4068 55.133 94.7727 55.133 96.4576C55.133 98.1425 56.467 99.5084 58.1127 99.5084Z" fill="#3F3D56"/>
<path d="M68.4061 99.5084C70.0517 99.5084 71.3858 98.1425 71.3858 96.4576C71.3858 94.7727 70.0517 93.4068 68.4061 93.4068C66.7605 93.4068 65.4264 94.7727 65.4264 96.4576C65.4264 98.1425 66.7605 99.5084 68.4061 99.5084Z" fill="#3F3D56"/>
<path d="M78.6995 99.5084C80.3451 99.5084 81.6792 98.1425 81.6792 96.4576C81.6792 94.7727 80.3451 93.4068 78.6995 93.4068C77.0539 93.4068 75.7198 94.7727 75.7198 96.4576C75.7198 98.1425 77.0539 99.5084 78.6995 99.5084Z" fill="#3F3D56"/>
<path d="M171.064 94.1612H163.753C163.609 94.1646 163.471 94.2245 163.37 94.328C163.269 94.4316 163.213 94.5706 163.213 94.7154C163.213 94.8602 163.269 94.9992 163.37 95.1028C163.471 95.2064 163.609 95.2662 163.753 95.2696H171.064C171.21 95.2676 171.349 95.2083 171.451 95.1046C171.553 95.0008 171.61 94.8611 171.61 94.7154C171.61 94.5698 171.553 94.43 171.451 94.3263C171.349 94.2226 171.21 94.1633 171.064 94.1612Z" fill="#3F3D56"/>
<path d="M171.064 96.2426H163.753C163.609 96.2458 163.471 96.3056 163.37 96.4091C163.269 96.5127 163.212 96.6518 163.212 96.7967C163.212 96.9416 163.269 97.0808 163.37 97.1843C163.471 97.2879 163.609 97.3477 163.753 97.3509H171.064C171.21 97.3492 171.349 97.29 171.451 97.1863C171.554 97.0825 171.611 96.9426 171.611 96.7967C171.611 96.6509 171.554 96.5109 171.451 96.4072C171.349 96.3035 171.21 96.2443 171.064 96.2426Z" fill="#3F3D56"/>
<path d="M171.064 98.3239H163.753C163.609 98.3272 163.471 98.3871 163.37 98.4907C163.269 98.5942 163.213 98.7333 163.213 98.878C163.213 99.0228 163.269 99.1619 163.37 99.2654C163.471 99.369 163.609 99.4288 163.753 99.4322H171.064C171.21 99.4302 171.349 99.3709 171.451 99.2672C171.553 99.1635 171.61 99.0237 171.61 98.878C171.61 98.7324 171.553 98.5926 171.451 98.4889C171.349 98.3852 171.21 98.3259 171.064 98.3239Z" fill="#3F3D56"/>
<path d="M347.318 221.222C347.539 221.865 347.957 222.422 348.513 222.812C349.07 223.203 349.735 223.406 350.414 223.394L363.68 223.052C364.364 223.039 365.025 222.804 365.565 222.383C366.105 221.962 366.494 221.378 366.675 220.717L368.552 200.612C369.218 200.914 369.943 201.063 370.674 201.049C371.309 201.033 371.935 200.892 372.516 200.634C373.097 200.375 373.621 200.005 374.059 199.544C374.496 199.083 374.839 198.54 375.068 197.946C375.296 197.352 375.405 196.719 375.389 196.083C375.373 195.447 375.232 194.82 374.975 194.239C374.717 193.657 374.347 193.132 373.887 192.694C373.426 192.255 372.884 191.912 372.292 191.683C371.699 191.455 371.067 191.345 370.431 191.361C370.139 191.36 369.848 191.391 369.562 191.452C369.251 191.115 368.874 190.847 368.453 190.665C368.033 190.484 367.579 190.392 367.121 190.397L346.716 190.925C346.546 190.931 346.378 190.952 346.212 190.987C345.765 191.071 345.34 191.249 344.967 191.511C344.595 191.773 344.282 192.111 344.051 192.504C343.82 192.897 343.675 193.334 343.627 193.788C343.579 194.241 343.628 194.7 343.772 195.132L347.318 221.222ZM368.937 199.247L370.273 194.456C370.425 193.903 370.428 193.319 370.283 192.764C370.348 192.763 370.405 192.733 370.47 192.733C371.386 192.714 372.272 193.059 372.934 193.694C373.596 194.328 373.979 195.199 374.001 196.116C374.022 197.034 373.68 197.922 373.048 198.587C372.417 199.251 371.548 199.638 370.632 199.662C370.04 199.681 369.454 199.537 368.937 199.247Z" fill="#2F2E41"/>
<path d="M346.212 190.987C346.647 193.477 351.535 195.227 357.412 194.923C362.816 194.673 367.235 192.773 368.045 190.52C367.745 190.431 367.434 190.39 367.121 190.397L346.716 190.925C346.546 190.931 346.378 190.952 346.212 190.987Z" fill="#3F3D56"/>
<path d="M358.489 210.174C358.516 210.168 358.541 210.156 358.565 210.141L361.446 208.253C361.48 208.23 361.509 208.199 361.529 208.162C361.549 208.126 361.559 208.085 361.559 208.043C361.559 208.001 361.549 207.96 361.529 207.924C361.509 207.887 361.48 207.856 361.446 207.833L358.451 205.869C358.424 205.851 358.393 205.838 358.361 205.832C358.328 205.826 358.295 205.826 358.263 205.832C358.231 205.839 358.2 205.852 358.173 205.871C358.145 205.889 358.122 205.913 358.104 205.94C358.086 205.968 358.073 205.999 358.067 206.031C358.061 206.064 358.062 206.097 358.068 206.129C358.075 206.162 358.088 206.192 358.107 206.22C358.125 206.247 358.149 206.27 358.177 206.288L360.851 208.043L358.291 209.722C358.241 209.754 358.205 209.803 358.188 209.86C358.171 209.917 358.175 209.978 358.198 210.032C358.222 210.087 358.264 210.131 358.318 210.157C358.371 210.183 358.432 210.189 358.489 210.174H358.489Z" fill="#6C63FF"/>
<path d="M353.939 210.385C353.987 210.372 354.031 210.346 354.064 210.309C354.097 210.271 354.119 210.225 354.125 210.176C354.132 210.126 354.124 210.076 354.102 210.031C354.08 209.986 354.045 209.949 354.002 209.924L351.346 208.399L353.913 206.49C353.939 206.47 353.962 206.446 353.979 206.417C353.995 206.389 354.007 206.358 354.011 206.325C354.016 206.293 354.015 206.259 354.007 206.228C353.999 206.196 353.984 206.166 353.965 206.139C353.945 206.113 353.921 206.091 353.892 206.074C353.864 206.057 353.833 206.046 353.8 206.041C353.768 206.036 353.735 206.038 353.703 206.046C353.671 206.054 353.641 206.068 353.615 206.088L350.741 208.225C350.708 208.25 350.681 208.283 350.663 208.321C350.646 208.358 350.638 208.4 350.64 208.441C350.643 208.483 350.655 208.523 350.677 208.559C350.699 208.594 350.73 208.623 350.766 208.644L353.753 210.359C353.809 210.391 353.876 210.401 353.939 210.385Z" fill="#6C63FF"/>
<path d="M358.202 211.829C358.227 211.823 358.25 211.814 358.271 211.8C358.299 211.783 358.324 211.761 358.343 211.734C358.363 211.708 358.377 211.678 358.384 211.646C358.392 211.614 358.394 211.58 358.389 211.548C358.383 211.515 358.372 211.484 358.355 211.456L354.271 204.731C354.236 204.675 354.181 204.634 354.116 204.618C354.052 204.603 353.984 204.613 353.927 204.648C353.87 204.683 353.83 204.738 353.814 204.803C353.798 204.867 353.809 204.936 353.843 204.992L357.927 211.717C357.955 211.763 357.997 211.798 358.046 211.819C358.096 211.839 358.151 211.843 358.202 211.829Z" fill="#6C63FF"/>
<path d="M128.612 130.811H106.484C105.581 130.811 104.849 131.544 104.849 132.448V134.613C104.849 135.517 105.581 136.25 106.484 136.25H128.612C129.515 136.25 130.247 135.517 130.247 134.613V132.448C130.247 131.544 129.515 130.811 128.612 130.811Z" fill="#6C63FF"/>
<path d="M141.511 141.689H93.5852C92.6825 141.689 91.9507 142.422 91.9507 143.326V145.492C91.9507 146.396 92.6825 147.129 93.5852 147.129H141.511C142.414 147.129 143.145 146.396 143.145 145.492V143.326C143.145 142.422 142.414 141.689 141.511 141.689Z" fill="#E6E6E6"/>
<path d="M141.511 152.568H93.5852C92.6825 152.568 91.9507 153.301 91.9507 154.205V156.37C91.9507 157.274 92.6825 158.007 93.5852 158.007H141.511C142.414 158.007 143.145 157.274 143.145 156.37V154.205C143.145 153.301 142.414 152.568 141.511 152.568Z" fill="#E6E6E6"/>
<path d="M145.574 188.997L145.682 189.34L145.688 189.351L148.955 199.301L152.714 210.766L159.786 232.312L159.855 235.659V235.67L160.38 262.594L158.923 266.244L160.563 272.229C160.563 272.229 159.809 263.183 155.765 268.378C153.474 271.33 150.795 274.35 148.595 277.182C151.8 278.481 155.056 279.656 158.364 280.707C159.078 280.936 159.797 281.153 160.517 281.37C160.671 281.416 160.826 281.462 160.98 281.508C171.944 284.755 183.278 286.58 194.706 286.937C195.3 286.954 195.883 286.966 196.448 286.977C196.648 286.983 196.842 286.989 197.037 286.989C197.676 286.994 198.31 287 198.95 287C200.241 287 201.526 286.981 202.806 286.943C212.277 286.675 221.692 285.4 230.894 283.138C230.831 279.334 230.66 274.888 230.414 270.14C230.3 267.811 227.735 265.288 227.581 262.851C227.472 261.02 229.774 259.298 229.654 257.439C228.877 245.99 227.906 250.385 227.187 242.278C227.112 241.483 227.044 240.722 226.981 239.995C226.518 234.789 226.198 231.534 226.198 231.534L229.272 212.133L234.099 181.673L233.727 181.061L233.31 180.855L207.85 168.234L206.468 164.687C206.065 163.665 205.366 162.787 204.461 162.167C203.556 161.546 202.486 161.21 201.389 161.203L184.618 161.134C183.747 161.13 182.889 161.334 182.113 161.729C181.337 162.124 180.666 162.699 180.156 163.406L175.615 169.705L145.574 188.997Z" fill="#3F3D56"/>
<path d="M163.653 227.517L159.855 235.659L157.261 241.22L152.8 264.614L150.566 266.988L148.653 258.583L128.624 263.037C127.967 259.381 128.448 263.161 128.042 259.15C128.157 259.036 128.276 258.921 128.396 258.807C128.716 258.509 128.985 258.229 128.979 257.96C128.751 244.126 129.436 220.583 135.16 206.32C136.056 203.992 137.238 201.783 138.679 199.747C138.793 199.592 138.902 199.438 139.01 199.283C141.649 195.582 143.317 191.937 145.682 189.346V189.34C145.697 189.328 145.71 189.315 145.722 189.3C145.731 189.296 145.738 189.29 145.745 189.283L161.991 180.655L162.688 200.267L163.185 214.364L163.653 227.517Z" fill="#3F3D56"/>
<path d="M222.234 229.83L226.979 239.998L228.635 243.539L233.095 266.931L235.321 269.3L237.239 260.897L238.14 260.711L254.394 257.34L259.131 272.409C260.199 270.627 260.62 268.531 260.322 266.474C260.025 264.417 259.027 262.527 257.498 261.122C257.175 260.829 256.905 260.543 256.913 260.273C257.183 244.002 256.189 214.292 247.215 202.064C244.365 198.183 242.654 194.318 240.166 191.617C240.159 191.61 240.159 191.602 240.151 191.602L234.096 181.673L233.727 181.063L233.311 180.855L222.234 229.83Z" fill="#3F3D56"/>
<path d="M193.488 156.354C205.811 156.354 215.801 146.349 215.801 134.007C215.801 121.665 205.811 111.66 193.488 111.66C181.165 111.66 171.175 121.665 171.175 134.007C171.175 146.349 181.165 156.354 193.488 156.354Z" fill="#FFB6B6"/>
<path d="M223.646 118.398C223.473 118.213 223.265 118.064 223.033 117.962C222.802 117.859 222.552 117.805 222.299 117.801L222.635 116.868C222.744 116.574 222.774 116.257 222.72 115.948C222.667 115.639 222.532 115.349 222.33 115.109C222.129 114.87 221.867 114.688 221.572 114.583C221.277 114.477 220.959 114.453 220.652 114.511L219.43 114.747L219.545 113.929C219.589 113.625 219.553 113.314 219.441 113.028C219.329 112.741 219.145 112.489 218.906 112.296C218.667 112.102 218.381 111.975 218.078 111.925C217.775 111.876 217.464 111.906 217.176 112.013C216.914 112.117 216.633 112.16 216.352 112.14C216.071 112.12 215.799 112.037 215.554 111.898C215.308 111.763 215.095 111.576 214.929 111.35C214.763 111.124 214.648 110.864 214.592 110.589L214.167 108.533L214.122 108.422C212.049 104.962 208.063 102.444 203.185 101.522C198.844 100.694 194.392 101.115 190.101 101.511C188.398 101.672 186.475 101.853 184.873 102.835C183.511 103.678 182.359 105.363 182.595 107.063C178.363 105.764 173.826 108.357 171.578 111.627C168.914 115.519 168.478 120.394 168.408 124.205C168.218 133.223 170.076 140.6 173.917 146.137C174.197 146.538 174.267 147.376 174.823 147.657L174.708 147.471C175.329 147.782 175.96 148.283 175.724 148.82C175.048 150.365 179.54 153.78 182.705 154.909C188.478 156.97 196.155 156.794 201.553 156.052L201.743 154.773C203.691 154.507 205.063 154.001 205.449 153.208C206.13 152.627 206.711 152.105 207.216 151.624L207.221 151.619C207.231 151.609 207.251 151.593 207.261 151.583C209.7 149.241 210.266 147.907 210.521 145.876C210.767 143.885 210.331 141.864 209.885 140.043C219.27 141.498 206.19 130.033 214.933 127.816C215.033 127.785 215.135 127.76 215.238 127.741C215.494 127.681 215.749 127.621 215.995 127.551C217.177 127.229 218.31 126.745 219.36 126.111C221.803 124.622 222.61 122.646 223.871 120.419C224.053 120.102 224.13 119.735 224.089 119.371C224.049 119.008 223.893 118.667 223.646 118.398Z" fill="#2F2E41"/>
<path d="M272.404 231.421C272.399 232.298 272.389 233.527 272.349 235.047C272.344 235.257 272.339 235.473 272.334 235.694C272.269 238.487 272.204 240.829 272.099 243.432C272.094 243.613 272.089 243.788 272.079 243.969C271.938 247.6 271.718 251.828 271.337 258.523C270.631 270.891 269.4 260.223 268.163 264.561C268.103 264.777 268.038 265.033 267.977 265.334C267.79 266.426 267.474 267.491 267.036 268.508C266.38 268.9 265.704 269.276 265.038 269.652C263.14 270.71 261.212 271.728 259.269 272.696C258.178 273.238 257.081 273.769 255.98 274.281C255.804 274.361 255.634 274.441 255.464 274.517C249.822 277.13 244.008 279.352 238.063 281.167C236.901 281.518 235.744 281.859 234.572 282.175C233.351 282.516 232.129 282.837 230.892 283.138C221.691 285.4 212.275 286.676 202.805 286.944C201.528 286.984 200.241 287 198.949 287C198.308 287 197.677 286.995 197.036 286.99C196.841 286.99 196.646 286.984 196.45 286.979C195.885 286.964 195.299 286.954 194.708 286.939C183.28 286.582 171.946 284.757 160.982 281.508L160.517 281.372C159.795 281.152 159.079 280.936 158.363 280.705C155.058 279.657 151.802 278.484 148.594 277.185C146.145 276.197 143.725 275.137 141.333 274.005C141.311 273.999 141.291 273.989 141.273 273.975C140.772 273.744 140.266 273.504 139.765 273.258C139.7 273.223 139.63 273.188 139.56 273.152C137.692 272.24 135.845 271.284 134.017 270.284C132.48 266.748 130.316 266.071 128.974 262.962C128.584 262.038 128.301 261.072 128.133 260.083C128.133 260.073 128.128 260.063 128.128 260.048C128.268 261.913 127.532 256.738 128.123 260.028C128.118 259.967 128.113 259.902 128.108 259.827C128.093 259.646 128.073 259.426 128.043 259.15C126.325 242.354 126.436 223.146 125.689 207.318C125.639 206.295 125.588 205.315 125.534 204.379C125.519 204.068 125.499 203.762 125.479 203.461C125.514 203.371 125.554 203.275 125.599 203.185C125.609 203.159 125.621 203.134 125.634 203.11C125.649 203.079 125.666 203.049 125.684 203.02C125.694 203.005 125.709 202.984 125.719 202.969C125.727 202.952 125.735 202.935 125.744 202.919C125.79 202.849 125.84 202.774 125.895 202.704C125.92 202.674 125.94 202.648 125.965 202.623C125.982 202.598 126.002 202.574 126.025 202.553C126.04 202.529 126.059 202.507 126.08 202.488C126.1 202.468 126.12 202.443 126.145 202.418C126.156 202.402 126.169 202.388 126.185 202.378C126.225 202.332 126.268 202.29 126.315 202.252C126.494 202.088 126.685 201.937 126.886 201.801C126.956 201.756 127.031 201.711 127.101 201.661C127.606 201.358 128.138 201.103 128.689 200.898C128.879 200.828 129.069 200.763 129.275 200.693C129.35 200.673 129.42 200.647 129.495 200.622C129.605 200.587 129.715 200.552 129.831 200.527C130.401 200.357 131.017 200.211 131.683 200.076C131.763 200.061 131.849 200.046 131.934 200.026C132.054 200 132.179 199.98 132.304 199.96C132.475 199.93 132.65 199.9 132.825 199.87C134.312 199.634 136 199.459 137.863 199.343C138.038 199.333 138.213 199.323 138.388 199.313C138.594 199.303 138.799 199.293 139.009 199.283C139.185 199.273 139.365 199.268 139.545 199.263C139.72 199.253 139.901 199.248 140.086 199.243C140.592 199.228 141.112 199.213 141.643 199.203C143.156 199.173 144.748 199.183 146.42 199.218C147.197 199.238 147.988 199.258 148.799 199.293C148.854 199.293 148.904 199.298 148.954 199.298C149.66 199.323 150.371 199.353 151.102 199.394C151.613 199.419 152.129 199.444 152.645 199.474C153.13 199.504 153.621 199.534 154.117 199.569C154.503 199.589 154.888 199.619 155.279 199.644C155.609 199.669 155.94 199.695 156.27 199.715L156.721 199.745C156.966 199.765 157.212 199.78 157.462 199.805C158.013 199.85 158.564 199.895 159.124 199.94C159.68 199.99 160.246 200.041 160.812 200.091C161.378 200.141 161.949 200.196 162.52 200.251C162.58 200.256 162.635 200.261 162.69 200.266C163.211 200.321 163.731 200.372 164.257 200.427C164.377 200.437 164.502 200.447 164.623 200.462C165.124 200.512 165.635 200.571 166.141 200.625C166.296 200.642 166.451 200.658 166.606 200.675C167.003 200.719 167.393 200.756 167.792 200.803C168.318 200.863 168.854 200.918 169.375 200.988C169.78 201.034 170.186 201.079 170.592 201.129C171.228 201.204 171.873 201.284 172.519 201.37C172.765 201.4 173.01 201.43 173.256 201.465C175.098 201.696 176.961 201.951 178.854 202.217C181.723 202.623 184.638 203.065 187.572 203.541C190.511 204.018 193.468 204.521 196.44 205.051C197.191 205.186 197.943 205.322 198.699 205.462C199.039 205.527 199.38 205.592 199.72 205.658C200.301 205.763 200.882 205.873 201.463 205.984C202.044 206.094 202.625 206.204 203.205 206.32C203.896 206.455 204.592 206.59 205.283 206.726C209.835 207.629 214.362 208.592 218.779 209.6C219.505 209.765 220.231 209.936 220.952 210.101C222.394 210.437 223.823 210.778 225.238 211.124C225.629 211.214 226.015 211.31 226.4 211.405C227.362 211.646 228.323 211.887 229.269 212.132L229.435 212.177C230.131 212.348 230.812 212.523 231.493 212.704C233.1 213.125 234.681 213.552 236.235 213.983C237.266 214.269 238.286 214.558 239.294 214.851C240.802 215.287 242.279 215.728 243.716 216.175C244.072 216.285 244.427 216.395 244.778 216.501C245.829 216.826 246.866 217.158 247.872 217.489C248.673 217.749 249.455 218.015 250.226 218.281C250.997 218.547 251.753 218.813 252.494 219.078C252.97 219.249 253.441 219.429 253.911 219.6C254.587 219.851 255.253 220.101 255.904 220.352C256.105 220.427 256.3 220.508 256.495 220.583C256.62 220.638 256.741 220.683 256.861 220.733C257.096 220.829 257.336 220.919 257.567 221.014C257.802 221.104 258.032 221.2 258.263 221.3C258.488 221.39 258.719 221.486 258.939 221.581C259.164 221.671 259.385 221.767 259.605 221.867C259.79 221.942 259.97 222.022 260.146 222.103C260.501 222.258 260.857 222.413 261.202 222.574C261.373 222.654 261.543 222.729 261.713 222.81L262.104 222.99C262.159 223.02 262.214 223.045 262.269 223.07C262.394 223.131 262.524 223.196 262.649 223.256C262.94 223.391 263.225 223.537 263.506 223.672C263.881 223.863 264.247 224.053 264.597 224.239C264.953 224.43 265.298 224.62 265.629 224.806C265.684 224.836 265.734 224.866 265.789 224.896C265.864 224.936 265.939 224.981 266.014 225.021C266.27 225.167 266.515 225.317 266.761 225.463C267.241 225.759 267.697 226.049 268.123 226.34C268.218 226.406 268.308 226.471 268.403 226.531C268.718 226.757 269.019 226.977 269.299 227.203C269.299 227.208 269.299 227.208 269.304 227.208C269.4 227.278 269.49 227.353 269.58 227.424C269.655 227.494 269.735 227.554 269.81 227.624C270.071 227.85 270.311 228.066 270.531 228.286C270.605 228.354 270.675 228.426 270.742 228.502C270.771 228.526 270.798 228.553 270.822 228.582C270.922 228.682 271.012 228.783 271.097 228.883C271.11 228.897 271.122 228.912 271.132 228.928C271.252 229.069 271.362 229.209 271.468 229.35C271.518 229.42 271.573 229.49 271.618 229.56C271.678 229.645 271.738 229.736 271.788 229.821C271.833 229.891 271.873 229.966 271.913 230.037C272.02 230.217 272.11 230.407 272.184 230.603C272.24 230.736 272.285 230.874 272.319 231.015C272.357 231.148 272.385 231.284 272.404 231.421Z" fill="#2F2E41"/>
<path opacity="0.2" d="M272.404 231.421C272.399 232.299 272.389 233.527 272.349 235.047C272.344 235.257 272.334 235.473 272.329 235.694C272.279 237.825 272.204 240.458 272.099 243.432C272.094 243.613 272.089 243.788 272.079 243.969C271.938 247.6 271.718 251.828 271.337 258.523C270.631 270.891 269.4 260.223 268.163 264.561C264.728 262.445 260.962 260.228 256.936 257.951C256.21 257.54 255.477 257.127 254.738 256.713C246.686 252.214 237.692 247.5 228.303 242.83C227.932 242.645 227.557 242.459 227.186 242.279C205.679 231.631 182.204 221.275 163.186 214.364C159.515 213.03 156.01 211.826 152.715 210.768C145.774 208.546 139.775 206.992 135.159 206.32C130.351 205.617 127.031 205.868 125.689 207.318C125.639 206.295 125.588 205.315 125.534 204.379C125.514 204.068 125.494 203.762 125.474 203.461C125.505 203.378 125.545 203.3 125.584 203.22C125.59 203.209 125.593 203.197 125.599 203.185C125.609 203.159 125.621 203.134 125.634 203.11C125.649 203.079 125.666 203.049 125.684 203.02C125.701 202.984 125.721 202.95 125.744 202.919C125.79 202.849 125.84 202.774 125.895 202.704C125.935 202.651 125.979 202.601 126.025 202.553C126.04 202.529 126.059 202.507 126.08 202.488C126.1 202.468 126.12 202.443 126.145 202.418C126.156 202.402 126.169 202.388 126.185 202.378C126.225 202.332 126.268 202.29 126.315 202.252C126.494 202.088 126.685 201.937 126.886 201.801C126.956 201.756 127.031 201.711 127.101 201.66C127.606 201.358 128.137 201.103 128.689 200.898C128.879 200.828 129.069 200.763 129.275 200.693C129.35 200.672 129.42 200.647 129.495 200.622C129.605 200.587 129.715 200.552 129.831 200.527C130.401 200.357 131.017 200.211 131.683 200.076C131.884 200.036 132.094 199.995 132.304 199.96C132.475 199.93 132.65 199.9 132.825 199.87C134.312 199.634 136 199.459 137.863 199.343C138.038 199.333 138.213 199.323 138.388 199.313C138.594 199.303 138.799 199.293 139.009 199.283C139.185 199.273 139.365 199.268 139.545 199.263C139.72 199.253 139.901 199.248 140.086 199.243C140.592 199.228 141.112 199.213 141.643 199.203C143.156 199.178 144.748 199.188 146.42 199.223C147.197 199.238 147.988 199.263 148.799 199.298C148.849 199.298 148.904 199.303 148.954 199.303C149.66 199.323 150.376 199.358 151.102 199.394C151.613 199.419 152.129 199.444 152.645 199.474C153.13 199.504 153.621 199.534 154.117 199.569C154.502 199.589 154.888 199.619 155.279 199.644C155.609 199.669 155.94 199.694 156.27 199.715C156.666 199.745 157.061 199.775 157.462 199.805C158.013 199.85 158.564 199.895 159.124 199.94C159.68 199.99 160.246 200.041 160.812 200.091C161.378 200.141 161.949 200.196 162.519 200.251C162.58 200.256 162.635 200.261 162.69 200.266C163.211 200.321 163.731 200.372 164.257 200.427C167.171 200.723 170.171 201.069 173.256 201.465C175.098 201.701 176.964 201.953 178.854 202.222C181.723 202.628 184.638 203.07 187.572 203.541C190.511 204.018 193.468 204.521 196.44 205.051C197.191 205.186 197.943 205.322 198.699 205.462C199.62 205.632 200.541 205.806 201.463 205.984C202.044 206.094 202.625 206.204 203.205 206.32C203.896 206.455 204.592 206.59 205.284 206.726C209.835 207.629 214.362 208.592 218.779 209.6C219.505 209.765 220.231 209.936 220.952 210.101C222.394 210.437 223.823 210.778 225.238 211.124C225.629 211.219 226.015 211.315 226.4 211.41C227.367 211.651 228.323 211.892 229.269 212.132V212.137C229.325 212.147 229.38 212.162 229.435 212.177C230.126 212.353 230.812 212.528 231.493 212.709C233.1 213.13 234.681 213.555 236.235 213.983C237.266 214.274 238.288 214.56 239.294 214.851C240.802 215.292 242.279 215.733 243.716 216.175C244.072 216.285 244.427 216.395 244.778 216.501C245.829 216.832 246.861 217.161 247.872 217.489C248.673 217.749 249.455 218.015 250.226 218.281C250.997 218.547 251.753 218.813 252.494 219.078C252.975 219.249 253.446 219.424 253.911 219.595C254.592 219.846 255.253 220.096 255.904 220.352C256.105 220.427 256.3 220.508 256.495 220.583C256.861 220.723 257.216 220.869 257.567 221.014C257.802 221.104 258.033 221.2 258.263 221.3C258.488 221.39 258.719 221.486 258.939 221.581C259.164 221.671 259.385 221.767 259.605 221.867C259.79 221.942 259.97 222.022 260.146 222.103C260.501 222.258 260.857 222.413 261.202 222.574C261.372 222.654 261.543 222.729 261.713 222.81L262.104 222.99C262.159 223.02 262.214 223.045 262.269 223.07C262.694 223.271 263.105 223.472 263.506 223.672C263.881 223.863 264.247 224.053 264.597 224.239C265.013 224.46 265.409 224.675 265.789 224.896C265.864 224.936 265.939 224.981 266.014 225.021C266.27 225.167 266.515 225.317 266.761 225.463C267.241 225.759 267.697 226.049 268.123 226.34C268.543 226.631 268.934 226.917 269.299 227.203C269.299 227.208 269.299 227.208 269.304 227.208C269.48 227.348 269.65 227.489 269.81 227.624C270.071 227.85 270.311 228.066 270.531 228.286C270.605 228.354 270.675 228.426 270.742 228.502C270.771 228.526 270.798 228.553 270.822 228.582C270.927 228.698 271.032 228.813 271.132 228.928C271.252 229.069 271.362 229.209 271.468 229.349C271.518 229.42 271.573 229.49 271.618 229.56C271.678 229.645 271.738 229.736 271.788 229.821C271.833 229.891 271.873 229.966 271.913 230.037C272.02 230.217 272.11 230.407 272.184 230.603C272.238 230.737 272.284 230.874 272.319 231.015C272.357 231.148 272.385 231.284 272.404 231.421Z" fill="black"/>
</g>
<defs>
<clipPath id="clip0_2_28">
<rect width="394" height="287" fill="white"/>
</clipPath>
</defs>
</svg>
