<svg width="85" height="85" viewBox="0 0 85 85" fill="none" xmlns="http://www.w3.org/2000/svg">
<path fill-rule="evenodd" clip-rule="evenodd" d="M56.4546 57.7765V30.3029C56.4545 29.8331 56.2678 29.3825 55.9356 29.0503C55.6033 28.7182 55.1528 28.5316 54.6829 28.5316H27.2414V0.172607H83.0105C83.2432 0.172562 83.4736 0.218353 83.6886 0.307368C83.9036 0.396382 84.0989 0.526875 84.2635 0.691395C84.428 0.855914 84.5586 1.05124 84.6476 1.26621C84.7367 1.48118 84.7825 1.71159 84.7825 1.94428V57.7765H56.4546Z" fill="#5C5C5E"/>
<path opacity="0.405" fill-rule="evenodd" clip-rule="evenodd" d="M27.2414 0.172607V28.5316H1.05054C0.875376 28.5315 0.704161 28.4795 0.558522 28.3822C0.412884 28.2849 0.299359 28.1466 0.232289 27.9848C0.16522 27.823 0.147617 27.6449 0.181704 27.4731C0.215791 27.3013 0.300039 27.1435 0.423803 27.0195L27.2414 0.172607ZM56.4546 83.9949V57.7765H84.7825L57.967 84.621C57.8431 84.7448 57.6853 84.8292 57.5135 84.8633C57.3417 84.8975 57.1636 84.88 57.0018 84.813C56.8399 84.746 56.7015 84.6325 56.6042 84.4869C56.5068 84.3413 56.4547 84.1701 56.4546 83.9949ZM27.2414 28.5316H55.5686C55.8035 28.5316 56.0288 28.6249 56.195 28.7909C56.3611 28.957 56.4545 29.1823 56.4546 29.4172V57.7765H29.0131C28.7804 57.7765 28.55 57.7307 28.3351 57.6417C28.1201 57.5526 27.9248 57.4221 27.7603 57.2576C27.5958 57.0931 27.4653 56.8978 27.3763 56.6828C27.2872 56.4679 27.2414 56.2375 27.2414 56.0048V28.5316Z" fill="#5C5C5E"/>
</svg>
