<svg width="70" height="70" viewBox="0 0 70 70" fill="none" xmlns="http://www.w3.org/2000/svg">
<path d="M0 35V0H70V70H0" fill="#5C5C5E"/>
<path d="M15.3475 35.1225V37.975H24.4475V63.875H30.905V37.975H40.0051V35.175C40.0051 33.6 40.0051 32.3225 39.9351 32.2875C39.9351 32.235 34.3875 32.2175 27.65 32.2175L15.4 32.27V35.14L15.3475 35.1225ZM56.2451 32.2C58.0301 32.62 59.3951 33.425 60.6201 34.7025C61.2676 35.4025 62.2301 36.6275 62.3001 36.9425C62.3001 37.0475 59.2726 39.095 57.4351 40.2325C57.3651 40.285 57.0851 39.9875 56.8051 39.5325C55.8951 38.2375 54.9676 37.6775 53.5151 37.5725C51.4151 37.4325 50.0151 38.535 50.0151 40.3725C50.0151 40.9325 50.1201 41.2475 50.3301 41.7025C50.8026 42.665 51.6776 43.2425 54.3901 44.4325C59.3951 46.585 61.5651 48.0025 62.8776 50.0325C64.3651 52.3075 64.6976 55.8775 63.7001 58.555C62.5801 61.4775 59.8501 63.455 55.9476 64.1025C54.7226 64.3125 51.9226 64.2775 50.6101 64.05C47.8101 63.525 45.1326 62.125 43.4876 60.3225C42.8401 59.6225 41.5976 57.75 41.6676 57.6275L42.3326 57.2075L44.9576 55.685L46.9351 54.53L47.3901 55.1425C47.9676 56.0525 49.2626 57.2775 50.0151 57.6975C52.2901 58.87 55.3351 58.7125 56.8401 57.3475C57.4876 56.7525 57.7676 56.1225 57.7676 55.2475C57.7676 54.4425 57.6451 54.075 57.2426 53.4625C56.6826 52.6925 55.5626 52.0625 52.4126 50.6625C48.7901 49.1225 47.2501 48.1425 45.8151 46.6375C44.9926 45.7275 44.2401 44.31 43.8901 43.1375C43.6276 42.1225 43.5401 39.6375 43.7851 38.64C44.5376 35.14 47.1801 32.69 50.9601 31.99C52.1851 31.745 55.0726 31.85 56.2801 32.165L56.2451 32.2Z" fill="#373737"/>
</svg>
